<?xml version="1.0" encoding="UTF-8"?>
<svg version="1.1" xmlns="http://www.w3.org/2000/svg" width="512" height="512">
<path d="M0 0 C1.16566915 -0.00835666 2.3313383 -0.01671332 3.53233075 -0.02532321 C6.76887749 -0.04434882 10.00485624 -0.04538396 13.2414341 -0.03875387 C16.73172224 -0.03588273 20.22189009 -0.05592364 23.71212769 -0.07290649 C30.5509929 -0.10228728 37.38971062 -0.10955534 44.22863242 -0.10833099 C49.78817518 -0.107499 55.34767125 -0.11335403 60.90720367 -0.12395668 C78.38767128 -0.1566477 95.86799523 -0.16561449 113.34848896 -0.15686695 C127.13607925 -0.15088741 140.92331371 -0.18126571 154.71081528 -0.22848966 C168.86780515 -0.27660076 183.02462373 -0.29866384 197.18169713 -0.29317886 C205.12978051 -0.29060267 213.07752324 -0.29858335 221.02553558 -0.3342495 C227.79377082 -0.36438191 234.56148822 -0.37012242 241.32975098 -0.34444048 C244.78217538 -0.33202361 248.23362675 -0.33079464 251.68597031 -0.36014938 C255.43231971 -0.38599732 259.17608642 -0.36871774 262.92236328 -0.34057617 C264.00914328 -0.35823758 265.09592329 -0.37589899 266.21563601 -0.3940956 C272.90129146 -0.28547818 276.37134664 0.97467848 281.10478431 5.76485813 C281.63620463 6.34673519 282.16762496 6.92861225 282.71514893 7.52812195 C284.10883949 8.85895561 284.10883949 8.85895561 285.53068542 10.2166748 C286.38038406 11.06557785 287.2300827 11.9144809 288.10552979 12.78910828 C288.58301666 13.26484283 289.06050354 13.74057739 289.55245972 14.23072815 C291.09745994 15.77140025 292.63886033 17.31561286 294.17999268 18.8601532 C295.2646096 19.94409515 296.34937481 21.02788872 297.4342804 22.11154175 C299.6907433 24.36654055 301.94541293 26.62331265 304.1987915 28.88139343 C307.08943625 31.77777602 309.98460348 34.66959015 312.88109493 37.5601244 C315.1141763 39.78960025 317.34488054 42.02144223 319.57486153 44.25401878 C320.64227445 45.32209888 321.71043096 46.38943638 322.77934074 47.45601845 C324.26549956 48.93964649 325.74843047 50.42642642 327.23052979 51.91410828 C328.07465927 52.75903336 328.91878876 53.60395844 329.78849792 54.4744873 C332.82913537 57.71553013 332.83560368 59.57190339 332.81280518 63.9225769 C332.80958755 65.06794922 332.80636993 66.21332153 332.80305481 67.3934021 C332.79467087 68.65626541 332.78628693 69.91912872 332.77764893 71.22026062 C332.77249729 72.55893253 332.7679077 73.89760671 332.76383972 75.23628235 C332.75476528 78.12335463 332.74345975 81.01040718 332.73098755 83.89746666 C332.71305566 88.46563875 332.71106463 93.03372688 332.71343994 97.60192871 C332.7138091 98.37273512 332.71417826 99.14354152 332.7145586 99.9377057 C332.71587649 102.31224564 332.717434 104.68678532 332.71905518 107.06132507 C332.72576514 116.90017098 332.72095876 126.73848809 332.66387939 136.57719421 C332.62237956 143.74946096 332.61267759 150.92098247 332.63998985 158.0933283 C332.65322664 161.88855744 332.65040298 165.68224237 332.60894775 169.47730064 C332.57024444 173.05101139 332.57376148 176.62223512 332.60907173 180.19595718 C332.61722566 182.12581284 332.58086979 184.0556974 332.54301453 185.98519897 C332.56924921 192.40283666 332.56924921 192.40283666 335.65145874 197.79310036 C337.92842032 199.57993862 340.22708966 201.05554343 342.71514893 202.52812195 C357.11162298 213.560352 367.2769528 231.2984681 370.41778564 249.18388367 C373.37236157 272.47603316 369.33845345 295.16154904 354.77764893 313.96562195 C348.78169133 320.94914903 342.52752541 327.58559805 334.71514893 332.52812195 C334.05514893 332.52812195 333.39514893 332.52812195 332.71514893 332.52812195 C332.7188361 333.09134533 332.72252327 333.65456871 332.72632217 334.23485947 C332.81465771 347.93902516 332.88059553 361.64314098 332.92239761 375.34753036 C332.94329118 381.9748926 332.97164174 388.60204968 333.01690674 395.22929382 C333.06030042 401.62241386 333.08427269 408.0153363 333.0946579 414.40859222 C333.10206085 416.85030987 333.11651666 419.29201646 333.13806915 421.73365021 C333.1670161 425.14812777 333.17110845 428.56178404 333.16925049 431.97636414 C333.18363159 432.99056427 333.1980127 434.0047644 333.21282959 435.04969788 C333.17278663 441.8299394 333.17278663 441.8299394 330.99053955 445.15922546 C328.35885434 446.74247213 326.91147653 447.01439908 323.85479736 446.98222351 C322.41375641 446.98177032 322.41375641 446.98177032 320.94360352 446.98130798 C319.39965912 446.95034027 319.39965912 446.95034027 317.82452393 446.91874695 C316.76477356 446.91308716 315.70502319 446.90742737 314.61315918 446.90159607 C311.23002865 446.87921435 307.84795908 446.82901293 304.46514893 446.77812195 C302.17089339 446.75805935 299.87662125 446.73980816 297.58233643 446.72343445 C291.9595789 446.67934375 286.33743971 446.6124133 280.71514893 446.52812195 C280.72403137 447.12058716 280.73291382 447.71305237 280.74206543 448.32347107 C280.83053188 454.48761857 280.89088018 460.65158587 280.93487549 466.81620789 C280.95499581 469.11706364 280.98229527 471.41786824 281.01690674 473.71855164 C281.06540505 477.02499512 281.08811371 480.3307628 281.10577393 483.63749695 C281.13674164 485.18144135 281.13674164 485.18144135 281.16833496 486.75657654 C281.16863708 487.71727051 281.16893921 488.67796448 281.16925049 489.66777039 C281.17813293 490.51160278 281.18701538 491.35543518 281.19616699 492.22483826 C280.52965377 495.41633799 279.23101122 496.4916857 276.71514893 498.52812195 C274.04286766 499.0295186 274.04286766 499.0295186 270.92422485 499.03148651 C269.13944701 499.047133 269.13944701 499.047133 267.31861305 499.06309557 C266.01007048 499.05417268 264.7015279 499.0452498 263.35333252 499.03605652 C261.95029235 499.04066421 260.54725701 499.04701624 259.1442318 499.0549655 C255.28432566 499.07170041 251.42481389 499.06339381 247.56490612 499.05102062 C243.40396101 499.04198936 239.24308484 499.05593026 235.08215332 499.06694031 C226.92914403 499.08475076 218.77628181 499.08087434 210.6232667 499.06928974 C203.9986694 499.06026561 197.3741134 499.059027 190.74951172 499.06338501 C189.80758575 499.06399794 188.86565978 499.06461087 187.8951906 499.06524238 C185.98183964 499.06652125 184.0684887 499.0678181 182.15513778 499.06913275 C164.20280699 499.08054594 146.25055783 499.06741325 128.29824042 499.04593128 C112.88573674 499.02805963 97.47335356 499.03116353 82.06085205 499.04960632 C64.17388995 499.07099999 46.28699943 499.07944724 28.40002632 499.06715727 C26.49361294 499.06588304 24.58719954 499.06462556 22.68078613 499.06338501 C21.2737041 499.06245936 21.2737041 499.06245936 19.83819616 499.061515 C13.21958729 499.05805759 6.60102373 499.06389887 -0.01757812 499.07330322 C-8.08065245 499.0845079 -16.14357096 499.08151552 -24.20662737 499.06018025 C-28.32257955 499.0496491 -32.4382717 499.0455829 -36.55422211 499.05877686 C-40.31944817 499.07066423 -44.08417231 499.06419939 -47.8493526 499.04286665 C-49.86234057 499.03625584 -51.87536317 499.04936935 -53.8883152 499.06309557 C-55.0781671 499.05266458 -56.26801899 499.04223359 -57.493927 499.03148651 C-58.52307913 499.0308371 -59.55223125 499.03018769 -60.61256981 499.0295186 C-64.12984095 498.3695776 -65.25868353 497.47251399 -67.28485107 494.52812195 C-67.67725267 491.9449689 -67.82318881 489.78748998 -67.78821564 487.20669556 C-67.7940294 486.46377089 -67.79984316 485.72084623 -67.8058331 484.95540869 C-67.82049666 482.45189567 -67.80651889 479.94935335 -67.79278564 477.44584656 C-67.79739206 475.63857743 -67.80374323 473.83131204 -67.81169462 472.02405453 C-67.82844672 467.04682371 -67.82011494 462.0698983 -67.80774975 457.09266615 C-67.79872557 451.7292619 -67.81265587 446.36591138 -67.82366943 441.0025177 C-67.84148744 430.49129913 -67.83760007 419.98019459 -67.82601887 409.46897149 C-67.81699771 400.92885414 -67.81575483 392.38876882 -67.82011414 383.84864807 C-67.82072707 382.6347367 -67.82134 381.42082533 -67.82197151 380.17012876 C-67.82325036 377.70435181 -67.82454722 375.23857487 -67.82586187 372.77279794 C-67.83727728 349.63283216 -67.82413889 326.49292969 -67.80266041 303.3529743 C-67.78478857 283.48326523 -67.78789241 263.61364964 -67.80633545 243.74394226 C-67.82772519 220.68868882 -67.83617856 197.63349092 -67.82388639 174.57822895 C-67.82261215 172.12135125 -67.82135467 169.66447354 -67.82011414 167.20759583 C-67.81949703 165.99865833 -67.81887993 164.78972083 -67.81824413 163.54414886 C-67.81478554 155.01095083 -67.82063053 146.47778793 -67.83003235 137.94459534 C-67.84123265 127.550254 -67.8382538 117.15603354 -67.81690937 106.76170611 C-67.80637243 101.4549168 -67.80232206 96.14832926 -67.81550598 90.84154129 C-67.82738106 85.98830734 -67.8209484 81.13546316 -67.79959577 76.28226483 C-67.7951089 74.52189812 -67.79744237 72.76149882 -67.80709893 71.00115287 C-67.81918025 68.61680977 -67.80687377 66.23381956 -67.78821564 63.84954834 C-67.7975803 63.15849648 -67.80694497 62.46744462 -67.81659341 61.7554518 C-67.7640138 58.41713354 -67.47258645 56.76956894 -65.39734602 54.10059643 C-62.85040217 52.20473191 -61.57330853 52.04087503 -58.42449951 52.07402039 C-56.98345856 52.07447357 -56.98345856 52.07447357 -55.51330566 52.07493591 C-53.96936127 52.10590363 -53.96936127 52.10590363 -52.39422607 52.13749695 C-50.80460052 52.14598663 -50.80460052 52.14598663 -49.18286133 52.15464783 C-45.79973079 52.17702954 -42.41766123 52.22723096 -39.03485107 52.27812195 C-36.74059554 52.29818455 -34.4463234 52.31643573 -32.15203857 52.33280945 C-26.52928105 52.37690015 -20.90714186 52.44383059 -15.28485107 52.52812195 C-15.29373352 51.93565674 -15.30261597 51.34319153 -15.31176758 50.73277283 C-15.40023403 44.56862532 -15.46058233 38.40465802 -15.50457764 32.24003601 C-15.52469796 29.93918025 -15.55199741 27.63837566 -15.58660889 25.33769226 C-15.63510719 22.03124878 -15.65781586 18.7254811 -15.67547607 15.41874695 C-15.69612122 14.38945068 -15.71676636 13.36015442 -15.73803711 12.29966736 C-15.73833923 11.33897339 -15.73864136 10.37827942 -15.73895264 9.38847351 C-15.74783508 8.54464111 -15.75671753 7.70080872 -15.76586914 6.83140564 C-14.08725619 -1.20638358 -6.57775804 -0.04128139 0 0 Z M1.71514893 17.52812195 C1.71514893 29.07812195 1.71514893 40.62812195 1.71514893 52.52812195 C5.84155884 52.52359764 5.84155884 52.52359764 10.05133057 52.51898193 C35.94934577 52.49391265 61.84713487 52.50743647 87.74511719 52.55658817 C101.06027254 52.5809293 114.37507692 52.59222114 127.69024658 52.57279968 C139.29567047 52.55590515 150.90077598 52.56348789 162.50615788 52.60046953 C168.65128866 52.6191966 174.79588098 52.62566214 180.94100952 52.60281563 C186.72622006 52.58169397 192.51044431 52.59332374 198.29556847 52.62996674 C200.41754963 52.63765407 202.53961301 52.63342242 204.66153908 52.61630821 C222.70738595 52.48192233 222.70738595 52.48192233 227.70869446 56.76045227 C228.75281353 57.98167395 229.76048612 59.23576521 230.71514893 60.52812195 C232.09004738 61.8401635 232.09004738 61.8401635 233.49272156 63.17871094 C234.3246553 64.00984909 235.15658905 64.84098724 236.01373291 65.6973114 C236.48146622 66.16329239 236.94919952 66.62927338 237.43110657 67.109375 C238.94364036 68.61758274 240.45257614 70.12932784 241.96124268 71.6414032 C243.02343937 72.70292488 244.08578436 73.76429819 245.14826965 74.82553101 C247.35765404 77.03345158 249.56524569 79.24314449 251.77154541 81.45414734 C254.60165572 84.28999637 257.43628928 87.12127522 260.27224636 89.95127583 C262.45900466 92.13442855 264.64338564 94.31994734 266.82704353 96.50620079 C267.87212779 97.55195216 268.91795548 98.59696111 269.96453667 99.64121437 C271.41956285 101.09370959 272.87136002 102.5493562 274.32232666 104.00590515 C275.14869125 104.83306534 275.97505585 105.66022552 276.82646179 106.51245117 C280.19514126 110.10761982 279.86289951 112.69567113 279.92047119 117.54814148 C279.93037079 118.27019775 279.94027039 118.99225403 279.95046997 119.7361908 C279.98210923 122.12773843 280.00685191 124.51930593 280.03155518 126.91093445 C280.05212261 128.56717959 280.07311903 130.22341946 280.0945282 131.87965393 C280.1497706 136.24273919 280.19917029 140.60587199 280.24737549 144.96903992 C280.2975747 149.41976664 280.353269 153.87042418 280.4085083 158.3210907 C280.51611639 167.05670931 280.61755545 175.79238574 280.71514893 184.52812195 C281.53005295 184.52345413 282.34495697 184.51878632 283.18455505 184.51397705 C284.25836929 184.51034653 285.33218353 184.506716 286.4385376 184.50297546 C288.03214363 184.49597374 288.03214363 184.49597374 289.65794373 184.48883057 C293.52674278 184.5385526 297.19397535 184.93776941 301.02764893 185.46562195 C302.32315674 185.63964539 303.61866455 185.81366882 304.95343018 185.9929657 C308.54086308 186.50332739 312.12801344 187.01567402 315.71514893 187.52812195 C315.71514893 148.91812195 315.71514893 110.30812195 315.71514893 70.52812195 C291.46014893 70.03312195 291.46014893 70.03312195 266.71514893 69.52812195 C254.92970984 57.74268286 261.86860491 24.43364133 261.71514893 17.52812195 C175.91514893 17.52812195 90.11514893 17.52812195 1.71514893 17.52812195 Z M279.71514893 30.52812195 C279.71514893 38.11812195 279.71514893 45.70812195 279.71514893 53.52812195 C287.30514893 53.52812195 294.89514893 53.52812195 302.71514893 53.52812195 C297.81407928 47.78597378 297.81407928 47.78597378 292.66436768 42.3445282 C291.96634033 41.64521179 291.26831299 40.94589539 290.5491333 40.22538757 C289.84079346 39.52091492 289.13245361 38.81644226 288.40264893 38.09062195 C287.67497314 37.35907898 286.94729736 36.62753601 286.1975708 35.87382507 C285.50598877 35.1835321 284.81440674 34.49323914 284.10186768 33.7820282 C283.16153687 32.84338928 283.16153687 32.84338928 282.20220947 31.88578796 C280.92766538 30.41574755 280.92766538 30.41574755 279.71514893 30.52812195 Z M-50.28485107 69.52812195 C-50.28485107 205.48812195 -50.28485107 341.44812195 -50.28485107 481.52812195 C53.33514893 481.52812195 156.95514893 481.52812195 263.71514893 481.52812195 C263.71514893 434.66812195 263.71514893 387.80812195 263.71514893 339.52812195 C255.79514893 335.56812195 255.79514893 335.56812195 247.71514893 331.52812195 C243.83639222 328.92895508 240.28354378 326.46963663 236.71514893 323.52812195 C236.09639893 323.02280945 235.47764893 322.51749695 234.84014893 321.99687195 C221.42474216 309.82363247 213.01535808 290.81713691 211.49542236 272.94438171 C210.50325189 250.68099341 214.75379432 230.01429675 229.66827393 212.7585907 C230.34374268 212.02253601 231.01921143 211.28648132 231.71514893 210.52812195 C232.39061768 209.76112976 233.06608643 208.99413757 233.76202393 208.2039032 C242.21843489 199.11480455 252.7096174 194.03088771 263.71514893 188.52812195 C263.71514893 166.74812195 263.71514893 144.96812195 263.71514893 122.52812195 C247.72448661 122.31807388 247.72448661 122.31807388 231.73345947 122.1401825 C229.73124304 122.10790268 227.7290438 122.07453041 225.72686768 122.0398407 C224.68421753 122.0335968 223.64156738 122.02735291 222.56732178 122.0209198 C221.57285034 122.00097961 220.57837891 121.98103943 219.55377197 121.960495 C218.68995407 121.94939194 217.82613617 121.93828888 216.93614197 121.92684937 C214.22503207 121.44013292 213.36392234 120.70079087 211.71514893 118.52812195 C206.54579479 103.02005953 210.0704331 85.87119373 209.71514893 69.52812195 C123.91514893 69.52812195 38.11514893 69.52812195 -50.28485107 69.52812195 Z M227.71514893 82.52812195 C227.71514893 90.11812195 227.71514893 97.70812195 227.71514893 105.52812195 C235.30514893 105.52812195 242.89514893 105.52812195 250.71514893 105.52812195 C245.81407928 99.78597378 245.81407928 99.78597378 240.66436768 94.3445282 C239.96634033 93.64521179 239.26831299 92.94589539 238.5491333 92.22538757 C237.84079346 91.52091492 237.13245361 90.81644226 236.40264893 90.09062195 C235.67497314 89.35907898 234.94729736 88.62753601 234.1975708 87.87382507 C233.50598877 87.1835321 232.81440674 86.49323914 232.10186768 85.7820282 C231.16153687 84.84338928 231.16153687 84.84338928 230.20220947 83.88578796 C228.92766538 82.41574755 228.92766538 82.41574755 227.71514893 82.52812195 Z M246.18389893 218.84062195 C233.34428962 232.20788643 227.0215611 248.58378484 227.31451416 267.03788757 C228.01392171 285.03261696 235.91983698 299.34988888 248.71514893 311.52812195 C261.67375101 323.37915121 277.39680327 328.42211998 294.80108643 327.8054657 C311.42758141 326.6273408 326.02815337 319.38065568 337.71514893 307.52812195 C350.62469563 292.49105114 354.90797762 275.52658195 353.95343018 256.16972351 C352.46140072 239.62898715 342.84689358 225.69591519 330.78546143 214.7820282 C305.17587223 194.326236 269.92943279 197.14717126 246.18389893 218.84062195 Z M312.25811768 341.1492157 C301.31218602 343.81242841 292.52776378 343.93749121 280.71514893 344.52812195 C280.71514893 372.57812195 280.71514893 400.62812195 280.71514893 429.52812195 C292.26514893 429.52812195 303.81514893 429.52812195 315.71514893 429.52812195 C315.71514893 400.15812195 315.71514893 370.78812195 315.71514893 340.52812195 C314.45434693 340.48727637 314.45434693 340.48727637 312.25811768 341.1492157 Z " fill="#000000" transform="translate(104.28485107421875,6.4718780517578125)"/>
<path d="M0 0 C0.81897505 -0.00297112 1.63795009 -0.00594224 2.48174256 -0.0090034 C5.24159731 -0.01771435 8.00140881 -0.01920067 10.76127625 -0.02069092 C12.73372999 -0.0253174 14.70618284 -0.03034183 16.67863464 -0.03573608 C22.04851504 -0.04887856 27.41838293 -0.05530866 32.78827691 -0.05974674 C36.14086785 -0.06267454 39.49345533 -0.06677878 42.84604454 -0.07125092 C53.32881286 -0.08493081 63.81157334 -0.09459501 74.29434997 -0.09845281 C86.40756771 -0.1029347 98.52067268 -0.12048669 110.63385612 -0.1494534 C119.98846428 -0.1710492 129.34304067 -0.18115597 138.6976735 -0.18249393 C144.28865939 -0.18354348 149.87953933 -0.18948312 155.47049904 -0.20731354 C160.72930836 -0.22375784 165.98793169 -0.22596744 171.24675751 -0.21717453 C173.17812026 -0.2164022 175.10949287 -0.22077261 177.04083061 -0.23063278 C179.67539276 -0.24329544 182.30929056 -0.23750655 184.94384766 -0.22705078 C185.70999982 -0.23510719 186.47615198 -0.24316359 187.26552087 -0.25146413 C191.7266276 -0.20999333 194.65978787 0.3046912 198.16239929 3.14044189 C200.04701253 7.30229614 200.51376897 9.19174377 198.91239929 13.51544189 C197.16239929 16.14044189 197.16239929 16.14044189 195.16239929 17.14044189 C192.50117345 17.24268471 189.86585936 17.283821 187.20417786 17.28088379 C185.95628095 17.28534047 185.95628095 17.28534047 184.68317401 17.28988719 C181.87952684 17.29859852 179.07592223 17.30008448 176.27226257 17.30157471 C174.26863005 17.30620113 172.2649984 17.31122555 170.2613678 17.31661987 C164.80684649 17.3297621 159.3523375 17.33619228 153.89780283 17.34063053 C150.49295669 17.34355809 147.08811394 17.34766226 143.6832695 17.3521347 C133.03872064 17.36581392 122.39417951 17.37547872 111.74962246 17.3793366 C99.44622378 17.38381972 87.14293605 17.40137765 74.83957112 17.43033719 C65.33975689 17.45192458 55.83997396 17.46203929 46.34013546 17.46337771 C40.66143273 17.46442778 34.98283425 17.47037838 29.30415726 17.48819733 C23.96409509 17.50462736 18.6242161 17.50685823 13.28413773 17.49805832 C11.32171642 17.49728524 9.35928547 17.50166608 7.39688873 17.51151657 C4.72256783 17.52415576 2.04890361 17.51840328 -0.62541199 17.50793457 C-1.40614983 17.51599097 -2.18688768 17.52404738 -2.99128425 17.53234792 C-6.22476165 17.50264372 -8.46570514 17.35248699 -11.3039875 15.73417282 C-13.61218097 13.33549805 -13.74619343 11.36842302 -14.01338196 8.14434814 C-13.73013735 4.91535961 -12.12876306 3.30068068 -9.83760071 1.14044189 C-6.72327946 -0.41671873 -3.41859727 -0.0038328 0 0 Z " fill="#000000" transform="translate(117.83760070800781,306.85955810546875)"/>
<path d="M0 0 C0.8230586 -0.00367669 1.64611719 -0.00735338 2.49411696 -0.01114148 C5.26778727 -0.02220474 8.04142015 -0.02602661 10.81510925 -0.02983093 C12.79741536 -0.03609354 14.77972029 -0.04274016 16.76202393 -0.04974365 C22.15875923 -0.0671711 27.55548566 -0.07770995 32.95224214 -0.08594918 C36.3215839 -0.09109514 39.69092288 -0.09717102 43.06026268 -0.10346031 C53.59535458 -0.12251637 64.13043945 -0.1367472 74.66554528 -0.14507228 C86.8393564 -0.15485033 99.01298595 -0.18118299 111.18673307 -0.22157317 C120.58804921 -0.25169808 129.98931319 -0.26653767 139.39067668 -0.26985329 C145.00964603 -0.27220773 150.62842153 -0.28121937 156.24733925 -0.30631447 C161.53245176 -0.32953706 166.81724196 -0.33385184 172.1023922 -0.32355309 C174.04343612 -0.32305621 175.98449561 -0.32942103 177.92549133 -0.34310913 C180.57335691 -0.36073909 183.22005459 -0.35376615 185.86791992 -0.34057617 C186.63796303 -0.35154542 187.40800614 -0.36251466 188.20138389 -0.37381631 C191.8515866 -0.32984745 193.95493423 0.04117924 197.07796764 1.99406147 C199.70329615 4.75619627 200.12443542 6.35425274 200.12443542 10.14717102 C198.75049812 13.02589679 197.37454105 14.89706539 195.12443542 17.14717102 C192.43805708 17.34920221 189.85416301 17.42519912 187.16621399 17.41459656 C185.91831709 17.42139323 185.91831709 17.42139323 184.64521015 17.4283272 C181.84151745 17.44104558 179.03801716 17.43934607 176.23429871 17.43769836 C174.23066455 17.44367899 172.22703271 17.45048345 170.22340393 17.45805359 C164.76887004 17.47576854 159.31439884 17.48041128 153.85983896 17.48168516 C149.31195816 17.48358065 144.76409208 17.49093417 140.21621692 17.49802935 C129.48916372 17.51433191 118.76214411 17.51919661 108.03507996 17.51777649 C96.95717439 17.51657467 85.87946353 17.53768027 74.80160725 17.56926382 C65.301786 17.5953865 55.8020285 17.60614547 46.30217159 17.60486567 C40.62344266 17.60435484 34.94488666 17.61010453 29.26619339 17.63122177 C23.92607777 17.65053663 18.5863012 17.65077498 13.24617386 17.63618851 C11.28375251 17.63409087 9.32131033 17.63885774 7.35892487 17.65090942 C4.68442172 17.66627334 2.01110059 17.65711297 -0.66337585 17.64164734 C-1.4441137 17.65193447 -2.22485155 17.66222159 -3.02924812 17.67282045 C-6.50414602 17.62826621 -8.49764454 17.42721694 -11.32632637 15.33111 C-13.53626412 12.21579231 -13.87556458 9.94733739 -13.87556458 6.14717102 C-10.01309988 0.02050288 -6.78062236 -0.00160942 0 0 Z " fill="#000000" transform="translate(117.87556457519531,364.8528289794922)"/>
<path d="M0 0 C0.83364012 -0.00538554 1.66728024 -0.01077108 2.52618217 -0.01631981 C5.32375663 -0.03064453 8.12086093 -0.02348461 10.91845703 -0.01637268 C12.92238751 -0.02207385 14.92631473 -0.02903712 16.93023682 -0.03717041 C22.37642249 -0.05514381 27.82244742 -0.05392571 33.26865387 -0.04822803 C37.81166945 -0.04514257 42.35465387 -0.05122136 46.89766502 -0.05726677 C57.61230424 -0.07132379 68.32686374 -0.06974058 79.04150391 -0.05836487 C90.10469231 -0.04687885 101.16763843 -0.06096486 112.23079491 -0.08776134 C121.72217202 -0.10989217 131.21347294 -0.11656174 140.70487404 -0.11068493 C146.37685572 -0.10730832 152.04868204 -0.10977724 157.72064209 -0.12693596 C163.05259217 -0.14236158 168.38418223 -0.13849832 173.71611786 -0.11963081 C175.67531005 -0.11593294 177.63452867 -0.11908809 179.59369659 -0.1295166 C182.26373036 -0.14264629 184.93255802 -0.13125095 187.60253906 -0.11352539 C188.38191267 -0.1231304 189.16128628 -0.1327354 189.96427727 -0.14263147 C193.48245074 -0.0944149 195.42432742 0.09844216 198.25509644 2.27056789 C200.11303355 4.81456589 200.72603623 6.22788121 200.80126953 9.38768005 C199.68141259 12.39361184 198.83953706 14.64030032 196.1904974 16.54716778 C192.7405193 17.76084395 189.3734986 17.66626644 185.76112366 17.64837646 C184.94452331 17.65220201 184.12792297 17.65602756 183.28657717 17.65996903 C180.5466991 17.67029864 177.80703061 17.66630697 175.06713867 17.66233826 C173.10424098 17.66668474 171.141345 17.67186768 169.17845154 17.67782593 C163.843793 17.69123375 158.50920523 17.69179263 153.17453313 17.68926263 C148.72357499 17.68819416 144.27263125 17.69307308 139.82167619 17.69786805 C129.32275694 17.70896933 118.82387346 17.7093971 108.32495117 17.70335388 C97.48790225 17.69731204 86.6509831 17.70962907 75.81395632 17.73092395 C66.51450301 17.7485267 57.21509106 17.75454342 47.9156217 17.75128621 C42.35932637 17.74947115 36.80312361 17.75213179 31.24684334 17.76600075 C26.02246798 17.77855293 20.79829527 17.77665971 15.57392311 17.76358986 C13.65546348 17.76121886 11.73698971 17.76397742 9.8185463 17.77221298 C7.20159379 17.7826379 4.58532661 17.7746142 1.96839905 17.76190186 C1.20750207 17.76927614 0.4466051 17.77665043 -0.33734936 17.78424817 C-4.8011028 17.73856554 -7.66605596 17.16782276 -11.19873047 14.38768005 C-13.27783236 11.26902721 -13.48032421 10.85028483 -13.07373047 7.38768005 C-13.00927734 6.70705505 -12.94482422 6.02643005 -12.87841797 5.32518005 C-10.8407891 -0.48323327 -5.24848148 -0.04047303 0 0 Z " fill="#000000" transform="translate(117.19873046875,191.61231994628906)"/>
<path d="M0 0 C0.8230586 -0.00367669 1.64611719 -0.00735338 2.49411696 -0.01114148 C5.26778727 -0.02220474 8.04142015 -0.02602661 10.81510925 -0.02983093 C12.79741536 -0.03609354 14.77972029 -0.04274016 16.76202393 -0.04974365 C22.15875923 -0.0671711 27.55548566 -0.07770995 32.95224214 -0.08594918 C36.3215839 -0.09109514 39.69092288 -0.09717102 43.06026268 -0.10346031 C53.59535458 -0.12251637 64.13043945 -0.1367472 74.66554528 -0.14507228 C86.8393564 -0.15485033 99.01298595 -0.18118299 111.18673307 -0.22157317 C120.58804921 -0.25169808 129.98931319 -0.26653767 139.39067668 -0.26985329 C145.00964603 -0.27220773 150.62842153 -0.28121937 156.24733925 -0.30631447 C161.53245176 -0.32953706 166.81724196 -0.33385184 172.1023922 -0.32355309 C174.04343612 -0.32305621 175.98449561 -0.32942103 177.92549133 -0.34310913 C180.57335691 -0.36073909 183.22005459 -0.35376615 185.86791992 -0.34057617 C186.63796303 -0.35154542 187.40800614 -0.36251466 188.20138389 -0.37381631 C191.8515866 -0.32984745 193.95493423 0.04117924 197.07796764 1.99406147 C199.70329615 4.75619627 200.12443542 6.35425274 200.12443542 10.14717102 C198.52031694 13.67623169 197.38284181 14.9749001 194.12443542 17.14717102 C191.42251068 17.34076302 188.82403303 17.4167037 186.12188721 17.40113831 C184.88495932 17.40581828 184.88495932 17.40581828 183.623043 17.41059279 C180.85007907 17.41859265 178.07733277 17.41224141 175.30436707 17.40596008 C173.32029085 17.40866908 171.33621563 17.4122295 169.35214233 17.4165802 C163.95550433 17.42571788 158.55894259 17.42215411 153.16230321 17.41582203 C147.5213775 17.41076846 141.88045843 17.41545175 136.23953247 17.41859436 C126.76438725 17.42223618 117.28927318 17.41742955 107.81413269 17.40791321 C96.85270981 17.39703139 85.89136135 17.4005514 74.92994028 17.41156602 C65.52776548 17.42063648 56.12561311 17.42192525 46.72343534 17.41668868 C41.10402325 17.41356725 35.48464614 17.41316432 29.86523628 17.41976166 C24.58181456 17.42553086 19.29848892 17.42154598 14.01507759 17.40997314 C12.07362528 17.40732415 10.13216491 17.40809572 8.19071579 17.41249847 C5.54502305 17.41794597 2.89964017 17.41112943 0.25396729 17.40113831 C-0.51830655 17.40559975 -1.29058038 17.41006119 -2.08625644 17.41465783 C-5.8206389 17.38721665 -8.74767074 17.31253291 -11.87556458 15.14717102 C-13.9723586 12.45129299 -13.87067279 11.05422702 -13.68806458 7.58467102 C-12.90044176 4.25242063 -12.57874845 3.09346341 -9.87556458 1.14717102 C-6.75225819 -0.41448217 -3.42893112 -0.00081388 0 0 Z " fill="#000000" transform="translate(117.87556457519531,422.8528289794922)"/>
<path d="M0 0 C0.75055794 -0.00297112 1.50111588 -0.00594224 2.274418 -0.0090034 C4.79079557 -0.01767884 7.3071255 -0.01919766 9.82351685 -0.02069092 C11.62715761 -0.02531985 13.43079739 -0.03034461 15.23443604 -0.03573608 C20.13527181 -0.04885339 25.0360939 -0.05530354 29.93694448 -0.05974674 C32.99842227 -0.06267806 36.05989632 -0.06678294 39.12137222 -0.07125092 C48.69911427 -0.08492301 58.27684775 -0.09459153 67.85459888 -0.09845281 C78.91279173 -0.10293542 89.97086108 -0.12049395 101.02901638 -0.1494534 C109.57604408 -0.17106033 118.12303702 -0.18115653 126.67009175 -0.18249393 C131.77538813 -0.1835425 136.88056838 -0.18946175 141.98583603 -0.20731354 C146.78750818 -0.22377747 151.58897667 -0.22595788 156.39066696 -0.21717453 C158.15229334 -0.2164033 159.9139306 -0.22075815 161.67552948 -0.23063278 C164.08194355 -0.24333026 166.48763389 -0.23748782 168.89404297 -0.22705078 C169.58977193 -0.23510719 170.28550089 -0.24316359 171.00231254 -0.25146413 C175.56503383 -0.20523642 178.69980317 0.73711617 182.57400513 3.14044189 C184.13871745 6.26986655 184.27102471 9.75126413 183.57400513 13.14044189 C182.02659607 15.23851109 182.02659607 15.23851109 179.57400513 17.14044189 C176.88112929 17.53135017 174.59750047 17.67729982 171.9067688 17.64164734 C170.74206322 17.64994893 170.74206322 17.64994893 169.55382824 17.65841824 C166.94955212 17.6720418 164.34623155 17.6570468 161.74197388 17.64215088 C159.87597242 17.64593344 158.00997376 17.65143297 156.14398193 17.65852356 C151.07374495 17.67250359 146.00384633 17.66129049 140.93362808 17.64481235 C135.63170342 17.63097857 130.32979874 17.63742002 125.02786255 17.64094543 C116.12359147 17.64364888 107.21945509 17.63016038 98.31521606 17.60699463 C88.01549355 17.58038408 77.71599629 17.57863731 67.41625118 17.59038299 C57.51491853 17.60115609 47.61366748 17.59497737 37.71234131 17.58082771 C33.4955045 17.57506386 29.27872734 17.57515374 25.06188965 17.57989311 C20.0976739 17.5846597 15.13370531 17.57457438 10.16953659 17.55293846 C8.34580697 17.54736608 6.52205362 17.54690942 4.6983223 17.55189133 C2.2123529 17.55783144 -0.2728576 17.54536396 -2.75875854 17.52812195 C-3.48365888 17.53413199 -4.20855921 17.54014204 -4.95542622 17.54633421 C-9.04499959 17.49461301 -11.50844137 17.10414347 -14.42599487 14.14044189 C-15.4906299 11.48994428 -15.66390905 8.97881336 -15.42599487 6.14044189 C-13.84525167 3.38877781 -12.78127398 1.64058715 -9.7455883 0.52031326 C-6.49785654 -0.01155594 -3.28120952 -0.00406048 0 0 Z " fill="#000000" transform="translate(119.42599487304688,248.85955810546875)"/>
<path d="M0 0 C1.86122749 -0.0129007 1.86122749 -0.0129007 3.76005554 -0.02606201 C5.14274555 -0.03049736 6.52543601 -0.03479571 7.90812683 -0.03897095 C9.35842079 -0.04687104 10.80871278 -0.05513993 12.25900269 -0.06375122 C17.02898783 -0.089981 21.79898181 -0.10527929 26.5690155 -0.11953735 C28.21017144 -0.12489654 29.85132732 -0.13027405 31.49248314 -0.13566971 C38.31834686 -0.15729938 45.14420821 -0.17603678 51.97009754 -0.1872921 C61.75737306 -0.20353588 71.54425186 -0.23672271 81.3313778 -0.29369295 C88.21042033 -0.33237237 95.08935665 -0.35192237 101.96850508 -0.35721266 C106.07850623 -0.36086877 110.18808434 -0.37291688 114.29796791 -0.4053154 C118.16488092 -0.43536151 122.03111418 -0.44172071 125.89811897 -0.42993164 C127.31670921 -0.42971061 128.73533066 -0.43804004 130.15381241 -0.45558548 C142.21394727 -0.59662948 142.21394727 -0.59662948 145.52194214 2.4677124 C147.70015984 6.00837963 147.84297008 8.06870895 147.17448425 12.15390015 C145.30739921 14.51887454 143.85386994 15.8142073 141.17448425 17.15390015 C139.26005746 17.25618092 137.34203799 17.29340221 135.42489624 17.30107117 C133.58891121 17.31180412 133.58891121 17.31180412 131.71583557 17.32275391 C130.35203578 17.32559429 128.98823571 17.328306 127.62443542 17.3309021 C126.19384597 17.33716583 124.76325815 17.34381255 123.33267212 17.35081482 C119.44002266 17.36823251 115.54738549 17.37877861 111.65470672 17.38702035 C109.22341876 17.39216876 106.79213464 17.39824456 104.36084938 17.40453148 C96.755999 17.42358551 89.15115834 17.43781632 81.54628867 17.44614345 C72.76383635 17.4559184 63.98163589 17.48224361 55.19927233 17.52264434 C48.4136452 17.55278992 41.62809032 17.56761082 34.84239751 17.57092446 C30.78835434 17.5732767 26.73458017 17.58225929 22.68060875 17.60738564 C18.86629003 17.63064445 15.05241786 17.6349087 11.23804665 17.62462425 C9.83881776 17.62412824 8.43956706 17.63046797 7.04040527 17.6441803 C5.12869287 17.66186608 3.21678706 17.65241852 1.30502319 17.64164734 C0.23557559 17.64403569 -0.83387201 17.64642405 -1.93572712 17.64888477 C-5.57590475 17.0253679 -7.23672783 15.74864911 -9.82551575 13.15390015 C-10.99148985 9.14586418 -11.25792076 7.10107303 -9.51301575 3.27890015 C-6.65507792 -0.31998452 -4.41767272 0.02272864 0 0 Z " fill="#000000" transform="translate(114.82551574707031,133.84609985351563)"/>
<path d="M0 0 C2.90000514 0.60739327 4.18543046 2.06343542 5.90234375 4.3984375 C7.28543156 7.16461313 7.01444571 9.4086175 7 12.5 C6.99677734 13.71171875 6.99355469 14.9234375 6.99023438 16.171875 C6.97766602 18.07839844 6.97766602 18.07839844 6.96484375 20.0234375 C6.96033203 21.3021875 6.95582031 22.5809375 6.95117188 23.8984375 C6.93935578 27.06515042 6.9228819 30.23177106 6.90234375 33.3984375 C8.08993286 33.37487183 8.08993286 33.37487183 9.30151367 33.35083008 C12.8975507 33.28837051 16.49347345 33.24941115 20.08984375 33.2109375 C21.33572266 33.18580078 22.58160156 33.16066406 23.86523438 33.13476562 C25.06728516 33.12509766 26.26933594 33.11542969 27.5078125 33.10546875 C28.61278076 33.0897583 29.71774902 33.07404785 30.85620117 33.05786133 C34.29099731 33.44189119 36.1452491 34.35030115 38.90234375 36.3984375 C40.46705608 39.52786215 40.59936333 43.00925973 39.90234375 46.3984375 C37.65218578 49.34824167 36.50654665 50.31039164 32.78613281 50.85253906 C31.59213867 50.8315918 30.39814453 50.81064453 29.16796875 50.7890625 C27.87246094 50.77617187 26.57695312 50.76328125 25.2421875 50.75 C23.87889551 50.71658116 22.51561426 50.68272141 21.15234375 50.6484375 C19.77346311 50.62836457 18.39455463 50.61011517 17.015625 50.59375 C13.64382631 50.54659198 10.27343688 50.48078288 6.90234375 50.3984375 C6.9180542 51.19016357 6.93376465 51.98188965 6.94995117 52.79760742 C7.01241074 56.39364445 7.0513701 59.9895672 7.08984375 63.5859375 C7.11498047 64.83181641 7.14011719 66.07769531 7.16601562 67.36132812 C7.17568359 68.56337891 7.18535156 69.76542969 7.1953125 71.00390625 C7.21102295 72.10887451 7.2267334 73.21384277 7.24291992 74.35229492 C6.85585277 77.81425685 5.98098724 79.62721688 3.90234375 82.3984375 C0.38409864 84.74393424 -0.95541319 84.97835153 -5.09765625 84.3984375 C-8.3866895 81.80608266 -9.93067786 80.34852661 -10.6652832 76.16870117 C-10.63909912 74.97994385 -10.61291504 73.79118652 -10.5859375 72.56640625 C-10.56982422 71.27412109 -10.55371094 69.98183594 -10.53710938 68.65039062 C-10.49533899 67.29555593 -10.45301434 65.94073822 -10.41015625 64.5859375 C-10.38505694 63.21162884 -10.36224661 61.83727634 -10.34179688 60.46289062 C-10.28292086 57.10695774 -10.20072045 53.7532566 -10.09765625 50.3984375 C-10.94996826 50.42462158 -11.80228027 50.45080566 -12.68041992 50.4777832 C-15.85792752 50.56325242 -19.03484735 50.62580539 -22.21313477 50.6730957 C-23.58572727 50.69816367 -24.95818727 50.73222832 -26.33032227 50.77563477 C-28.30816321 50.83661281 -30.28699809 50.86204759 -32.265625 50.88671875 C-34.04876099 50.92599487 -34.04876099 50.92599487 -35.86791992 50.96606445 C-40.04525747 50.23189635 -41.49707609 48.67604189 -44.09765625 45.3984375 C-44.84228865 41.42706469 -44.47032503 39.95744067 -42.22265625 36.5859375 C-39.68782143 33.97654872 -38.92393707 33.43197045 -35.30029297 33.28491211 C-34.13771973 33.29014893 -32.97514648 33.29538574 -31.77734375 33.30078125 C-30.52050781 33.30400391 -29.26367188 33.30722656 -27.96875 33.31054688 C-26.65003906 33.31892578 -25.33132813 33.32730469 -23.97265625 33.3359375 C-22.63281414 33.34095261 -21.29297025 33.34551549 -19.953125 33.34960938 C-16.66792419 33.36142664 -13.38281228 33.37790133 -10.09765625 33.3984375 C-10.11860352 32.54088867 -10.13955078 31.68333984 -10.16113281 30.79980469 C-10.22942152 27.60925278 -10.27951138 24.41907404 -10.31738281 21.22802734 C-10.33746267 19.8486707 -10.36473291 18.46939881 -10.39941406 17.09033203 C-10.44808442 15.10486771 -10.46852043 13.11877496 -10.48828125 11.1328125 C-10.50922852 9.93881836 -10.53017578 8.74482422 -10.55175781 7.51464844 C-9.62828904 1.17746813 -5.77080865 -0.27940601 0 0 Z " fill="#000000" transform="translate(397.09765625,228.6015625)"/>
</svg>
