<?xml version="1.0" encoding="UTF-8"?>
<svg version="1.1" xmlns="http://www.w3.org/2000/svg" width="512" height="512">
<path d="M0 0 C9.61347284 5.1205436 17.26402591 14.3081927 24.87353516 21.94750977 C25.87970828 22.95396582 26.88610334 23.96020003 27.8927002 24.9662323 C30.59261132 27.66585957 33.28945445 30.36853207 35.98570681 33.07181287 C38.81591707 35.90832599 41.64900915 38.74195798 44.48178101 41.57591248 C49.83127324 46.92849776 55.17821395 52.28362423 60.5242151 57.63969606 C66.61665083 63.74335626 72.71196755 69.84413598 78.80751348 75.94468987 C91.33318995 88.48078479 103.85529098 101.02044556 116.375 113.5625 C119.90933768 112.05576936 122.16390051 110.01169898 124.85758972 107.29350281 C125.75039642 106.39766479 126.64320313 105.50182678 127.56306458 104.57884216 C128.54496868 103.58348081 129.52679278 102.58804053 130.50854492 101.5925293 C131.54824491 100.54571489 132.58841812 99.49937029 133.62902832 98.45346069 C135.86838846 96.20100442 138.10469884 93.94557813 140.33879662 91.68790245 C143.87635989 88.11371279 147.42264194 84.54826117 150.97053528 80.98432922 C161.05795619 70.84864135 171.13365245 60.70134643 181.20043945 50.54516602 C186.76097996 44.93540282 192.32878383 39.33294959 197.90435869 33.73812801 C201.42763102 30.20182109 204.94172232 26.65671826 208.4491514 23.10470045 C210.64142787 20.88883468 212.84214672 18.68150279 215.04524994 16.4764061 C216.05932836 15.45806034 217.06999683 14.43630471 218.07681465 13.41077995 C225.86010285 5.48862124 233.42296829 -1.4658093 245 -1.75 C252.26793586 -1.6884818 257.04747145 0.52060748 263.125 4.25 C268.48726825 9.76122015 271.49961756 16.53376254 271.6875 24.1875 C271.45929406 40.00977863 258.46850473 49.62340673 247.98999023 60.06103516 C246.98353418 61.06720828 245.97729997 62.07360334 244.9712677 63.0802002 C242.27164043 65.78011132 239.56896793 68.47695445 236.86568713 71.17320681 C234.02917401 74.00341707 231.19554202 76.83650915 228.36158752 79.66928101 C223.00900224 85.01877324 217.65387577 90.36571395 212.29780394 95.7117151 C206.19414374 101.80415083 200.09336402 107.89946755 193.99281013 113.99501348 C181.45671521 126.52068995 168.91705444 139.04279098 156.375 151.5625 C157.88173064 155.09683768 159.92580102 157.35140051 162.64399719 160.04508972 C163.53983521 160.93789642 164.43567322 161.83070313 165.35865784 162.75056458 C166.35401919 163.73246868 167.34945947 164.71429278 168.3449707 165.69604492 C169.39178511 166.73574491 170.43812971 167.77591812 171.48403931 168.81652832 C173.73649558 171.05588846 175.99192187 173.29219884 178.24959755 175.52629662 C181.82378721 179.06385989 185.38923883 182.61014194 188.95317078 186.15803528 C199.08885865 196.24545619 209.23615357 206.32115245 219.39233398 216.38793945 C225.00209718 221.94847996 230.60455041 227.51628383 236.19937199 233.09185869 C239.73567891 236.61513102 243.28078174 240.12922232 246.83279955 243.6366514 C249.04866532 245.82892787 251.25599721 248.02964672 253.4610939 250.23274994 C254.47943966 251.24682836 255.50119529 252.25749683 256.52672005 253.26431465 C264.44887876 261.04760285 271.4033093 268.61046829 271.6875 280.1875 C271.6259818 287.45543586 269.41689252 292.23497145 265.6875 298.3125 C260.17627985 303.67476825 253.40373746 306.68711756 245.75 306.875 C229.92772137 306.64679406 220.31409327 293.65600473 209.87646484 283.17749023 C208.87029172 282.17103418 207.86389666 281.16479997 206.8572998 280.1587677 C204.15738868 277.45914043 201.46054555 274.75646793 198.76429319 272.05318713 C195.93408293 269.21667401 193.10099085 266.38304202 190.26821899 263.54908752 C184.91872676 258.19650224 179.57178605 252.84137577 174.2257849 247.48530394 C168.13334917 241.38164374 162.03803245 235.28086402 155.94248652 229.18031013 C143.41681005 216.64421521 130.89470902 204.10455444 118.375 191.5625 C114.84066232 193.06923064 112.58609949 195.11330102 109.89241028 197.83149719 C108.99960358 198.72733521 108.10679687 199.62317322 107.18693542 200.54615784 C106.20503132 201.54151919 105.22320722 202.53695947 104.24145508 203.5324707 C103.20175509 204.57928511 102.16158188 205.62562971 101.12097168 206.67153931 C98.88161154 208.92399558 96.64530116 211.17942187 94.41120338 213.43709755 C90.87364011 217.01128721 87.32735806 220.57673883 83.77946472 224.14067078 C73.69204381 234.27635865 63.61634755 244.42365357 53.54956055 254.57983398 C47.98902004 260.18959718 42.42121617 265.79205041 36.84564131 271.38687199 C33.32236898 274.92317891 29.80827768 278.46828174 26.3008486 282.02029955 C24.10857213 284.23616532 21.90785328 286.44349721 19.70475006 288.6485939 C18.69067164 289.66693966 17.68000317 290.68869529 16.67318535 291.71422005 C8.88989715 299.63637876 1.32703171 306.5908093 -10.25 306.875 C-17.51793586 306.8134818 -22.29747145 304.60439252 -28.375 300.875 C-33.73726825 295.36377985 -36.74961756 288.59123746 -36.9375 280.9375 C-36.70929406 265.11522137 -23.71850473 255.50159327 -13.23999023 245.06396484 C-12.23353418 244.05779172 -11.22729997 243.05139666 -10.2212677 242.0447998 C-7.52164043 239.34488868 -4.81896793 236.64804555 -2.11568713 233.95179319 C0.72082599 231.12158293 3.55445798 228.28849085 6.38841248 225.45571899 C11.74099776 220.10622676 17.09612423 214.75928605 22.45219606 209.4132849 C28.55585626 203.32084917 34.65663598 197.22553245 40.75718987 191.12998652 C53.29328479 178.60431005 65.83294556 166.08220902 78.375 153.5625 C76.86826936 150.02816232 74.82419898 147.77359949 72.10600281 145.07991028 C71.21016479 144.18710358 70.31432678 143.29429687 69.39134216 142.37443542 C68.39598081 141.39253132 67.40054053 140.41070722 66.4050293 139.42895508 C65.35821489 138.38925509 64.31187029 137.34908188 63.26596069 136.30847168 C61.01350442 134.06911154 58.75807813 131.83280116 56.50040245 129.59870338 C52.92621279 126.06114011 49.36076117 122.51485806 45.79682922 118.96696472 C35.66114135 108.87954381 25.51384643 98.80384755 15.35766602 88.73706055 C9.74790282 83.17652004 4.14544959 77.60871617 -1.44937199 72.03314131 C-4.98567891 68.50986898 -8.53078174 64.99577768 -12.08279955 61.4883486 C-14.29866532 59.29607213 -16.50599721 57.09535328 -18.7110939 54.89225006 C-19.72943966 53.87817164 -20.75119529 52.86750317 -21.77672005 51.86068535 C-29.69887876 44.07739715 -36.6533093 36.51453171 -36.9375 24.9375 C-36.8759818 17.66956414 -34.66689252 12.89002855 -30.9375 6.8125 C-22.77299323 -1.13134442 -10.79704035 -4.24169442 0 0 Z " fill="#000000" transform="translate(138.625,103.4375)"/>
</svg>
