<?xml version="1.0" encoding="UTF-8"?>
<svg version="1.1" xmlns="http://www.w3.org/2000/svg" width="512" height="512">
<path d="M0 0 C1.30636764 -0.00226556 2.61273527 -0.00453111 3.95868981 -0.00686532 C7.57400883 -0.01296826 11.18930467 -0.01285151 14.80462766 -0.01167095 C18.70792066 -0.01146656 22.6112063 -0.01698927 26.51449585 -0.02172852 C34.1573772 -0.03002709 41.80025084 -0.03278299 49.44313632 -0.03334089 C55.65618506 -0.03381638 61.86923127 -0.03587275 68.08227921 -0.03904152 C85.70334158 -0.04784551 103.32439786 -0.05246123 120.94546245 -0.05171105 C121.8949787 -0.05167109 122.84449495 -0.05163113 123.82278442 -0.05158997 C125.24880056 -0.05152864 125.24880056 -0.05152864 126.7036251 -0.05146609 C142.11330955 -0.05105957 157.52296958 -0.06063125 172.93264697 -0.07472833 C188.76099748 -0.08909403 204.58933607 -0.09599843 220.41769326 -0.09513456 C229.30181735 -0.09480268 238.18591582 -0.09754575 247.07003403 -0.10831261 C254.63328612 -0.11742008 262.19650098 -0.11959077 269.75975619 -0.11280318 C273.61705343 -0.10953939 277.47427924 -0.10947625 281.33156967 -0.11815643 C285.51667336 -0.12747733 289.70161182 -0.12124183 293.88671875 -0.11352539 C295.10083179 -0.11866895 296.31494484 -0.12381252 297.56584918 -0.12911195 C307.70162173 -0.08779953 315.92493276 0.48535775 323.66409302 7.59855652 C330.81707662 15.0495811 331.5184055 24.34610504 331.42869568 34.24000549 C331.43110911 35.31405722 331.43352254 36.38810895 331.43600911 37.4947077 C331.4405878 41.07033007 331.42397919 44.64553264 331.40750122 48.22111511 C331.40669437 50.79421991 331.40729013 53.36732546 331.40917969 55.94042969 C331.4115078 61.47057638 331.40362175 67.00063047 331.38933754 72.5307579 C331.36919423 80.53932091 331.37136693 88.54776719 331.3800086 96.55634542 C331.39400535 109.5691172 331.39910134 122.58187189 331.39431763 135.59465027 C331.39403787 136.37237921 331.39375812 137.15010816 331.39346989 137.95140465 C331.38908165 148.98665568 331.37576705 160.02187816 331.35885914 171.05711623 C331.35766982 171.83423879 331.35648049 172.61136135 331.35525513 173.41203308 C331.35346474 174.57628473 331.35346474 174.57628473 331.35163818 175.76405661 C331.33230385 188.72797819 331.33613651 201.69177128 331.3587901 214.65568697 C331.37181782 222.63941894 331.36553726 230.62266846 331.33400013 238.60635103 C331.3115184 244.72962594 331.3201985 250.85249943 331.34017563 256.97577477 C331.34334579 259.47989072 331.33630621 261.98404439 331.31810951 264.48809624 C330.98746597 282.25204172 330.98746597 282.25204172 338.07034302 298.13371277 C347.30183065 321.7569859 345.91164345 347.26691827 336.66799927 370.54777527 C335.49492139 373.18074712 334.30855816 375.49841541 332.84378052 377.95402527 C330.73488791 380.88261307 330.73488791 380.88261307 331.63284302 383.38371277 C333.02994071 385.08452735 334.44143116 386.6528838 336.07034302 388.13371277 C336.68909302 387.82433777 337.30784302 387.51496277 337.94534302 387.19621277 C342.04816491 385.14480182 344.35794214 384.52566104 349.07034302 385.13371277 C356.88581185 390.42034701 363.45638695 398.31918553 370.14456177 404.96965027 C370.75984049 405.58085346 371.37511921 406.19205666 372.00904274 406.82178116 C375.25971156 410.05172234 378.50718827 413.28483523 381.75222778 416.52043152 C385.08576248 419.84287208 388.43082106 423.15345729 391.77855206 426.46158409 C394.37016494 429.0269663 396.95277045 431.60127707 399.53309059 434.17801285 C400.76200213 435.40208276 401.9942633 436.6228001 403.23004723 437.83993149 C415.50136843 449.93731271 415.50136843 449.93731271 419.07034302 458.13371277 C419.50346802 459.06183777 419.93659302 459.98996277 420.38284302 460.94621277 C422.65719212 471.49092224 420.92959946 480.68078536 415.44534302 489.82121277 C410.35819882 497.01857975 402.66458663 501.42334521 394.07034302 503.13371277 C384.48110125 504.28955887 376.04394027 502.17541415 368.23831177 496.47746277 C360.58757151 490.37136905 353.87679767 483.14827542 347.00784302 476.19621277 C345.55583754 474.73415881 344.10336743 473.27256615 342.65042114 471.81144714 C339.1183448 468.25750227 335.59262956 464.69735938 332.07034302 461.13371277 C332.03956413 462.15557175 332.03956413 462.15557175 332.00816345 463.19807434 C331.95158021 465.07663782 331.89453998 466.95518758 331.83709717 468.83372498 C331.77903613 470.79340249 331.72854392 472.7533082 331.68240356 474.71330261 C331.31807166 484.26748579 329.78217163 492.39232529 323.03128052 499.44230652 C316.63534356 504.95912066 309.66094208 506.25628703 301.35963726 506.26234722 C299.67801338 506.26718389 299.67801338 506.26718389 297.9624173 506.27211827 C296.74092998 506.27056967 295.51944265 506.26902107 294.26094055 506.26742554 C292.30267073 506.27082387 292.30267073 506.27082387 290.30483991 506.27429086 C286.68726155 506.28040139 283.06970634 506.28027615 279.452124 506.27909648 C275.54813174 506.27889229 271.64414688 506.28441303 267.74015808 506.28915405 C260.09379751 506.29745705 252.44744465 506.30020874 244.80107995 506.30076643 C238.58514688 506.30124175 232.36921634 506.30329732 226.15328407 506.30646706 C208.52631355 506.31527265 190.89934912 506.31988658 173.27237638 506.31913658 C172.32229473 506.31909663 171.37221307 506.31905667 170.39334106 506.3190155 C168.96647668 506.31895418 168.96647668 506.31895418 167.51078675 506.31889162 C152.09457219 506.31848517 136.67838206 506.32805471 121.26217457 506.34215387 C105.42933567 506.3565197 89.59650869 506.36342394 73.76366311 506.36256009 C64.87617067 506.3622282 55.98870384 506.36497208 47.10121727 506.37573814 C39.53428116 506.38484585 31.96738226 506.38701616 24.40044304 506.38022872 C20.5411275 506.3769649 16.68188335 506.37690186 12.82257462 506.38558197 C8.63522791 506.39490287 4.44804635 506.38866735 0.26069641 506.38095093 C-0.95409875 506.38609449 -2.16889392 506.39123805 -3.42050105 506.39653748 C-12.35660175 506.36013471 -21.69640316 506.01722066 -28.92965698 500.13371277 C-35.09743206 493.48274794 -37.23875474 487.20437036 -37.18413258 478.14007759 C-37.18733905 477.34876916 -37.19054553 476.55746073 -37.19384918 475.74217325 C-37.20216118 473.08632734 -37.19622068 470.43070624 -37.19035339 467.77485657 C-37.19337353 465.8532213 -37.19726231 463.93158722 -37.20194596 462.00995529 C-37.2122525 456.72580225 -37.21003738 451.44171686 -37.20576537 446.1575582 C-37.20330296 440.46010841 -37.21230626 434.76267511 -37.21980286 429.06523132 C-37.23256541 417.90192463 -37.23434161 406.73864196 -37.23200259 395.5753292 C-37.23022101 386.50326417 -37.23196564 377.43120646 -37.23622704 368.3591423 C-37.23682222 367.06894669 -37.23741741 365.77875107 -37.23803064 364.44945862 C-37.23924236 361.82859167 -37.2404565 359.20772473 -37.24167302 356.58685778 C-37.24946258 338.98418976 -37.25337771 321.38152564 -37.24935627 303.77885628 C-37.24919989 303.09044124 -37.24904352 302.4020262 -37.2488824 301.6927501 C-37.24807662 298.20356679 -37.24723085 294.71438349 -37.2463691 291.22520019 C-37.24619801 290.53223392 -37.24602693 289.83926766 -37.24585065 289.12530241 C-37.245504 287.72395618 -37.24515547 286.32260995 -37.24480507 284.92126372 C-37.23944769 263.11559923 -37.24737852 241.30997518 -37.26583862 219.50431824 C-37.2865533 195.00679097 -37.29725126 170.50929296 -37.29326314 146.01175582 C-37.29134886 133.04030997 -37.29386071 120.06890095 -37.30797768 107.0974617 C-37.31987371 96.05479552 -37.32131634 85.01218886 -37.30918751 73.9695219 C-37.30328634 68.3341589 -37.30223358 62.69890487 -37.31418991 57.06354904 C-37.32500638 51.90555437 -37.32199591 46.74776019 -37.30792823 41.58977507 C-37.3052696 39.72306815 -37.30768423 37.85634572 -37.31566409 35.98965396 C-37.32575774 33.45253719 -37.31735892 30.91611901 -37.30438709 28.37903023 C-37.31169644 27.65413645 -37.31900578 26.92924266 -37.32653663 26.1823824 C-37.24593937 18.57839416 -34.81386412 12.25600912 -29.66403198 6.67277527 C-21.22041149 -0.81998706 -10.62066591 -0.01349707 0 0 Z M-19.97419401 21.33924205 C-21.63434603 24.45720084 -21.61470732 27.60186023 -21.55886269 31.03923035 C-21.56612989 31.82100773 -21.57339709 32.60278511 -21.58088452 33.40825272 C-21.59915539 36.03207256 -21.58177032 38.65443446 -21.5645752 41.27824402 C-21.57033557 43.17656197 -21.57827612 45.07487435 -21.58821142 46.97317505 C-21.60911939 52.19291059 -21.5987515 57.41219013 -21.58328032 62.63192749 C-21.57198696 68.25983295 -21.58941953 73.88765893 -21.60317993 79.51554871 C-21.62543836 90.54187303 -21.6205995 101.5680274 -21.60611673 112.59435844 C-21.59483475 121.55394259 -21.59328908 130.51347903 -21.59873581 139.47306824 C-21.59950197 140.74718913 -21.60026814 142.02131002 -21.60105752 143.33404064 C-21.60265611 145.92221707 -21.60427718 148.51039347 -21.60592048 151.09856987 C-21.61977879 174.68781165 -21.60539581 198.27693944 -21.57920749 221.86616206 C-21.55547918 243.403312 -21.55760231 264.94031412 -21.58151245 286.47746277 C-21.60828187 310.67101868 -21.61881226 334.86446947 -21.60345113 359.05804443 C-21.60185835 361.63681538 -21.6002865 364.21558633 -21.59873581 366.7943573 C-21.59796443 368.06323382 -21.59719305 369.33211035 -21.5963983 370.63943768 C-21.59207725 379.59051177 -21.5993766 388.5415335 -21.61113358 397.49259949 C-21.62514204 408.39776243 -21.62139334 419.30274538 -21.59472986 430.20788765 C-21.58156954 435.77420588 -21.57647719 441.34022376 -21.59297562 446.90653992 C-21.60784206 451.99918909 -21.5997414 457.09125869 -21.57308786 462.18385506 C-21.56748887 464.02898649 -21.57037494 465.87416659 -21.5824668 467.71926689 C-21.59761977 470.22294421 -21.58213526 472.72462308 -21.55886269 475.22819519 C-21.57056852 475.94871693 -21.58227435 476.66923866 -21.5943349 477.41159439 C-21.52543219 481.10684568 -20.92427102 483.65069375 -18.745139 486.58079177 C-15.56816133 489.46149673 -14.45648114 489.88411807 -10.25273895 489.8859663 C-9.11376364 489.90099609 -7.97478833 489.91602587 -6.80129862 489.9315111 C-5.55471523 489.91744465 -4.30813184 489.9033782 -3.02377319 489.8888855 C-1.6824471 489.89508347 -0.34113097 489.90390074 1.0001626 489.91511089 C4.68504748 489.93823752 8.36898201 489.92389598 12.05384755 489.90340173 C16.02804296 489.88778385 20.00209386 489.90668757 23.97627258 489.92120361 C31.76125048 489.94404682 39.54586967 489.93454162 47.33084047 489.91370275 C53.65698308 489.89742825 59.98302771 489.89321684 66.30918884 489.89766884 C67.20906018 489.89829951 68.10893152 489.89893019 69.03607169 489.89957998 C70.86406039 489.90092601 72.69204906 489.90230558 74.52003771 489.90371833 C91.6669798 489.91565949 108.81372509 489.89157784 125.96062237 489.85470024 C140.67809247 489.82380665 155.39533596 489.82143571 170.11282349 489.84049988 C187.19776983 489.86260518 204.28258911 489.86876237 221.36754179 489.84817725 C223.18886024 489.84601428 225.01017871 489.84386519 226.83149719 489.84173012 C228.1757332 489.84013057 228.1757332 489.84013057 229.54712549 489.83849871 C235.86672179 489.83202531 242.18625278 489.83679937 248.50584412 489.84575462 C256.20586251 489.85628346 263.90561504 489.84881134 271.60558426 489.81829884 C275.53539141 489.80315597 279.46477865 489.79602461 283.39459801 489.81048965 C286.99095831 489.82348883 290.58648608 489.81346449 294.18274993 489.78493092 C296.10248666 489.77565941 298.02229326 489.79096619 299.94198465 489.80709189 C306.70930287 489.9462581 306.70930287 489.9462581 312.33559608 486.72705936 C314.06158343 484.14680784 314.71158827 482.90701556 314.78079224 479.85343933 C314.80946381 479.04199463 314.83813538 478.23054993 314.86767578 477.39451599 C314.87010284 476.52985718 314.87252991 475.66519836 314.87503052 474.77433777 C314.88930084 473.87052368 314.90357117 472.96670959 314.91827393 472.0355072 C314.93916368 470.12595756 314.94675229 468.21622213 314.94192505 466.30656433 C314.94531858 463.40461069 315.02314489 460.51092471 315.10549927 457.61027527 C315.42097876 447.80470935 315.42097876 447.80470935 312.04006958 438.87004089 C309.82745602 436.67761381 307.61962605 434.90824368 305.07034302 433.13371277 C303.51557612 430.02417898 303.78389865 427.57104516 304.07034302 424.13371277 C306.07034302 420.69621277 306.07034302 420.69621277 308.07034302 418.13371277 C307.19466529 417.09553814 306.2938151 416.07855974 305.38284302 415.07121277 C304.88397583 414.50273621 304.38510864 413.93425964 303.87112427 413.34855652 C302.10464287 411.8915381 302.10464287 411.8915381 299.70706177 412.27433777 C296.78411663 413.22700137 294.27256932 414.48003229 291.57034302 415.94621277 C269.85078443 427.04554602 244.03424857 428.30164755 220.94143677 420.84465027 C196.63834169 412.48266499 178.33248242 396.37500119 166.92556763 373.46012878 C155.8999367 350.33696829 154.89735107 324.32707167 162.96951294 300.11637878 C167.62594855 286.99597477 175.24346117 275.977307 185.07034302 266.13371277 C185.82831177 265.36414246 186.58628052 264.59457214 187.36721802 263.80168152 C206.05706534 245.87530835 230.82271573 239.54458424 256.04690552 239.85246277 C276.60030131 240.5043307 295.62646399 248.89593807 311.42581177 261.84855652 C312.85381131 263.23633827 312.85381131 263.23633827 314.07034302 263.13371277 C314.18437831 232.51688364 314.27287699 201.90010302 314.32566966 171.28311228 C314.33192328 167.66942863 314.33839489 164.0557454 314.34500122 160.44206238 C314.34631277 159.72263577 314.34762433 159.00320916 314.34897562 158.26198175 C314.3707389 146.6093802 314.41016544 134.95690185 314.456107 123.30437342 C314.5028461 111.34995578 314.530633 99.39560271 314.54078549 87.44109744 C314.54703365 80.72547532 314.56207529 74.01011023 314.5989933 67.29458046 C314.63286594 60.97694893 314.64341343 54.65971276 314.63588142 48.34199905 C314.63725986 46.02038234 314.6472438 43.69875276 314.66637039 41.37721443 C314.69117102 38.21241263 314.68529473 35.04911236 314.6716156 31.88427734 C314.68617981 30.96112301 314.70074401 30.03796868 314.71574956 29.08683997 C314.66819806 25.02940072 314.35876942 22.64514477 312.33938122 19.06440544 C307.14519305 15.99671996 302.08982016 16.4422915 296.16445923 16.49206543 C294.82313543 16.48558741 293.48182066 16.47693328 292.14052343 16.46629113 C288.45575868 16.44346084 284.77162476 16.45186727 281.08683848 16.46543038 C277.11264312 16.47467544 273.13857396 16.45520144 269.16441345 16.43945312 C261.37948961 16.41334606 253.59479655 16.41445955 245.80984557 16.42549131 C239.48370743 16.43404452 233.15763613 16.43322309 226.83149719 16.42569542 C225.93162585 16.42464053 225.03175451 16.42358564 224.10461435 16.42249879 C222.27662565 16.4203279 220.44863698 16.41814112 218.62064832 16.41593864 C201.47374005 16.39650188 184.32696135 16.4085135 167.18006366 16.43072458 C152.46257101 16.4489774 137.74532919 16.4380705 123.02786255 16.40641785 C105.94291742 16.36967566 88.85812898 16.35262612 71.77314425 16.36583012 C69.9518258 16.36717125 68.13050733 16.36848023 66.30918884 16.3697567 C64.96495284 16.3707027 64.96495284 16.3707027 63.59356055 16.37166781 C57.27394003 16.37469786 50.95443749 16.36342246 44.63484192 16.34650612 C36.93480429 16.3262054 29.23512077 16.32701351 21.53510177 16.35513852 C17.60521676 16.36893469 13.67595039 16.37304551 9.74608803 16.35118866 C6.1496218 16.33144998 2.55432115 16.33932544 -1.04206389 16.369383 C-2.96182072 16.37825377 -4.8816435 16.35757583 -6.80129862 16.33591443 C-7.94027393 16.35094422 -9.07924924 16.365974 -10.25273895 16.38145924 C-11.23540285 16.38189128 -12.21806674 16.38232332 -13.23050833 16.38276845 C-16.41847885 17.26971047 -18.00603278 18.69281895 -19.97419401 21.33924205 Z M192.07034302 281.13371277 C177.96170648 297.99847965 171.68080239 318.33229942 173.07034302 340.13371277 C174.87746173 356.03304161 181.01335522 369.78631367 191.07034302 382.13371277 C191.53827271 382.76406433 192.00620239 383.39441589 192.48831177 384.04386902 C203.56674655 398.3061355 222.5616918 406.88509128 240.06399536 409.42277527 C260.22747664 411.84258817 279.56643742 407.0603633 296.07034302 395.13371277 C299.60086463 392.31029847 302.87462267 389.32943312 306.07034302 386.13371277 C306.77932739 385.42472839 307.48831177 384.71574402 308.21878052 383.98527527 C320.43347298 371.02178939 326.36749175 354.68254111 328.07034302 337.13371277 C328.14253052 336.40410339 328.21471802 335.67449402 328.28909302 334.92277527 C329.22467446 314.57387883 320.41615451 295.01489191 307.53518677 279.79777527 C293.67314312 264.81534458 274.74234108 256.05111372 254.37893677 254.93058777 C230.56081838 254.64217463 208.26588678 263.28719471 192.07034302 281.13371277 Z M319.07034302 396.13371277 C317.42034302 398.11371277 315.77034302 400.09371277 314.07034302 402.13371277 C316.05034302 403.78371277 318.03034302 405.43371277 320.07034302 407.13371277 C321.72034302 405.15371277 323.37034302 403.17371277 325.07034302 401.13371277 C323.09034302 399.48371277 321.11034302 397.83371277 319.07034302 396.13371277 Z M341.91555786 407.06144714 C341.04624634 407.9412323 340.17693481 408.82101746 339.28128052 409.72746277 C338.81799347 410.19357971 338.35470642 410.65969666 337.87738037 411.13993835 C336.39528842 412.63324667 334.92029104 414.13335114 333.44534302 415.63371277 C332.44319769 416.64588602 331.44059914 417.65761075 330.43753052 418.66886902 C327.9765164 421.1519627 325.52182002 423.64119894 323.07034302 426.13371277 C324.64955772 429.98332426 327.24665549 432.60594645 330.14334106 435.49723816 C330.91695229 436.28092522 330.91695229 436.28092522 331.70619202 437.08044434 C333.40953185 438.80275161 335.12028919 440.51744527 336.83206177 442.23136902 C338.02327497 443.42901161 339.21433824 444.62680334 340.40525818 445.82473755 C342.90260884 448.33405828 345.4040545 450.83921503 347.9079895 453.34196472 C351.10806712 456.54183931 354.294177 459.75523681 357.47687054 462.97239017 C359.93306693 465.45087992 362.39835722 467.9201692 364.86625099 470.38700676 C366.04437059 471.56747919 367.21926539 472.7511795 368.39078331 473.93820381 C370.0345808 475.60170737 371.69070642 477.25192976 373.35037231 478.89958191 C374.0653186 479.63138672 374.0653186 479.63138672 374.79470825 480.37797546 C378.62588627 484.13945082 382.84374874 486.82182756 388.29299927 487.34855652 C394.4281782 486.42372063 398.31993987 484.21527326 402.38284302 479.38371277 C404.32850664 475.63650876 405.48038766 472.37581103 405.07034302 468.13371277 C403.14683947 462.77411411 400.70479094 459.19227196 396.62088013 455.19841003 C396.07745468 454.6511879 395.53402924 454.10396576 394.97413635 453.54016113 C393.19158199 451.75025071 391.3951374 449.9750597 389.59768677 448.20011902 C388.35050216 446.95532055 387.10405808 445.70977972 385.85832214 444.46353149 C383.25438962 441.86271783 380.64390346 439.26873507 378.02810669 436.67985535 C374.66954165 433.35541023 371.32443556 430.01780831 367.98364925 426.67550755 C365.41497207 424.10737288 362.84112653 421.54447308 360.26547432 418.98333549 C359.02945482 417.75369238 357.79465351 416.52282354 356.56107903 415.29072762 C354.842498 413.57646261 353.11750828 411.86893316 351.39041138 410.16325378 C350.87867371 409.65060974 350.36693604 409.1379657 349.83969116 408.60978699 C346.13856105 404.62952717 346.13856105 404.62952717 341.91555786 407.06144714 Z " fill="#000000" transform="translate(63.929656982421875,2.8662872314453125)"/>
<path d="M0 0 C0.9077417 -0.01260864 1.8154834 -0.02521729 2.75073242 -0.03820801 C4.21023315 -0.02606262 4.21023315 -0.02606262 5.69921875 -0.01367188 C6.70509033 -0.01749878 7.71096191 -0.02132568 8.74731445 -0.02526855 C10.87224326 -0.02798838 12.99720551 -0.02062228 15.12207031 -0.00390625 C18.37510807 0.01750172 21.6259372 -0.0037062 24.87890625 -0.02929688 C26.94401529 -0.02665361 29.00912296 -0.02152867 31.07421875 -0.01367188 C32.04721924 -0.0217688 33.02021973 -0.02986572 34.02270508 -0.03820801 C35.38431763 -0.01929504 35.38431763 -0.01929504 36.7734375 0 C37.96779419 0.00477356 37.96779419 0.00477356 39.1862793 0.00964355 C42.31503366 0.73186406 43.4010837 2.01268588 45.38671875 4.51757812 C45.87891006 7.57101822 45.87891006 7.57101822 45.86773682 11.22467041 C45.87115452 11.8977907 45.87457222 12.57091098 45.87809348 13.26442885 C45.88467967 15.51884223 45.86268615 17.77206362 45.84082031 20.02636719 C45.83969198 21.64269991 45.84032541 23.25903468 45.84259033 24.87536621 C45.84373899 29.26359848 45.8202053 33.65139428 45.7922945 38.03952503 C45.76730605 42.62526556 45.76494087 47.21101586 45.76019287 51.79681396 C45.74775557 60.48077254 45.71492376 69.16452993 45.67479491 77.84839988 C45.63010067 87.73461228 45.60809607 97.62083425 45.58801317 107.50712252 C45.54619179 127.84405339 45.47582507 148.18080309 45.38671875 168.51757812 C46.14960205 168.50017578 46.91248535 168.48277344 47.69848633 168.46484375 C48.69517334 168.45130859 49.69186035 168.43777344 50.71875 168.42382812 C51.7085083 168.40642578 52.6982666 168.38902344 53.71801758 168.37109375 C56.38671875 168.51757812 56.38671875 168.51757812 59.07421875 170.01757812 C60.8808879 173.45885269 61.39453748 176.72343703 60.38671875 180.51757812 C59.05058956 182.61041164 59.05058956 182.61041164 56.38671875 184.51757812 C52.6775907 185.13988043 48.98677619 185.06082249 45.23353577 185.03224182 C44.08208413 185.03918735 42.93063249 185.04613288 41.74428838 185.05328888 C38.54753667 185.06843614 35.3513806 185.06559981 32.1546284 185.05513585 C28.70735845 185.04815351 25.26018439 185.0641344 21.8129425 185.07713318 C15.05928811 185.09879501 8.30580206 185.09864071 1.55212433 185.09050763 C-3.93640819 185.08421205 -9.42489155 185.08534059 -14.91342354 185.09177971 C-16.08442298 185.09313219 -16.08442298 185.09313219 -17.27907898 185.094512 C-18.8649182 185.09636317 -20.45075741 185.09822573 -22.0365966 185.10009956 C-36.91395342 185.11668574 -51.79121546 185.10795201 -66.66856659 185.09111398 C-80.28352222 185.07641742 -93.89825716 185.09104327 -107.51318436 185.11988414 C-121.48822261 185.1492677 -135.46315897 185.1602534 -149.43822676 185.15070194 C-151.01859222 185.14967937 -152.5989577 185.14868476 -154.1793232 185.14771843 C-154.95691878 185.14724204 -155.73451436 185.14676565 -156.53567345 185.14627482 C-162.01770212 185.14410925 -167.49963447 185.15392241 -172.98164177 185.16848946 C-179.66242811 185.18599404 -186.34293308 185.18592272 -193.02370828 185.1631378 C-196.43305149 185.151978 -199.84189864 185.14887138 -203.2512207 185.16743851 C-206.94566354 185.18328122 -210.63873743 185.16849842 -214.33311462 185.14576721 C-215.41306936 185.15760294 -216.49302409 185.16943867 -217.60570472 185.18163306 C-224.84157743 185.09082305 -224.84157743 185.09082305 -228.77922916 182.16581631 C-230.61328125 179.51757812 -230.61328125 179.51757812 -231.23828125 176.51757812 C-230.35966775 172.30023333 -229.18109964 170.94369463 -225.61328125 168.51757812 C-223.12060547 168.31005859 -223.12060547 168.31005859 -220.41796875 168.38476562 C-219.51804199 168.40394043 -218.61811523 168.42311523 -217.69091797 168.44287109 C-217.00529785 168.46752441 -216.31967773 168.49217773 -215.61328125 168.51757812 C-215.61994308 167.3635701 -215.62660492 166.20956207 -215.63346863 165.02058411 C-215.69427482 154.14694044 -215.73925158 143.27333125 -215.76871777 132.39955616 C-215.78437587 126.80918608 -215.80561701 121.21895322 -215.83959961 115.62866211 C-215.87218756 110.234058 -215.89013318 104.83958592 -215.89791298 99.44489098 C-215.90345747 97.38638925 -215.91428445 95.32789478 -215.93047142 93.26944923 C-215.95223798 90.38691193 -215.95524847 87.50492067 -215.95385742 84.62231445 C-215.96464325 83.77067215 -215.97542908 82.91902985 -215.98654175 82.0415802 C-215.96231757 77.4047351 -215.72485101 74.21815802 -212.61328125 70.51757812 C-209.88620863 68.68619016 -207.72496079 68.26417855 -204.47485352 68.24291992 C-203.67044327 68.23338791 -202.86603302 68.2238559 -202.0372467 68.21403503 C-200.7465049 68.21540215 -200.7465049 68.21540215 -199.4296875 68.21679688 C-198.09090797 68.21036919 -198.09090797 68.21036919 -196.7250824 68.20381165 C-194.83976082 68.19807549 -192.95441711 68.19756282 -191.0690918 68.2019043 C-188.18955608 68.20506301 -185.31104928 68.18160081 -182.43164062 68.15625 C-180.59765754 68.15397676 -178.76367171 68.15327363 -176.9296875 68.15429688 C-176.07121719 68.14508713 -175.21274689 68.13587738 -174.32826233 68.12638855 C-169.60871433 68.16279078 -166.4202061 68.41498214 -162.61328125 71.51757812 C-159.97025196 75.48212206 -160.34813842 78.88784632 -160.38623047 83.48706055 C-160.38593842 84.40433426 -160.38564636 85.32160797 -160.38534546 86.26667786 C-160.38674014 89.30223002 -160.40230792 92.33753752 -160.41796875 95.37304688 C-160.42169839 97.47626105 -160.42454559 99.57947695 -160.42654419 101.68269348 C-160.43418452 107.22131132 -160.4538365 112.75982444 -160.47595215 118.29840088 C-160.49640193 123.94891951 -160.50554405 129.59945504 -160.515625 135.25 C-160.53708197 146.33923874 -160.57122278 157.42839973 -160.61328125 168.51757812 C-155.99328125 168.51757812 -151.37328125 168.51757812 -146.61328125 168.51757812 C-146.6221637 167.06289627 -146.63104614 165.60821442 -146.64019775 164.10945129 C-146.72123259 150.4103284 -146.78146262 136.7112241 -146.82052994 123.01192188 C-146.84114974 115.96870608 -146.86925889 108.92566927 -146.91503906 101.88256836 C-146.95918628 95.087448 -146.98240946 88.29251387 -146.99279022 81.49725914 C-147.0001894 78.90286008 -147.01463796 76.30847138 -147.03620148 73.71415138 C-147.06517579 70.08435567 -147.06923958 66.45533193 -147.06738281 62.82543945 C-147.08176392 61.74937943 -147.09614502 60.6733194 -147.11096191 59.56465149 C-147.08625207 55.10981944 -147.05698301 52.30205858 -144.8348999 48.37333679 C-140.38295413 44.65454512 -135.44209637 45.35720523 -129.8671875 45.34960938 C-129.01905991 45.34628098 -128.17093231 45.34295258 -127.29710388 45.33952332 C-125.50593609 45.33446797 -123.71475891 45.33211456 -121.92358398 45.33227539 C-119.18913208 45.3300888 -116.4550837 45.3119182 -113.72070312 45.29296875 C-111.97786596 45.29003453 -110.23502688 45.28804993 -108.4921875 45.28710938 C-107.67746475 45.27992386 -106.862742 45.27273834 -106.02333069 45.26533508 C-98.26225488 45.29644558 -98.26225488 45.29644558 -94.61328125 47.51757812 C-90.50524267 52.30891584 -91.21239658 57.76918288 -91.27270508 63.73364258 C-91.272267 64.8657869 -91.27182892 65.99793121 -91.27137756 67.16438293 C-91.27346618 70.90338434 -91.29680152 74.64193637 -91.3203125 78.38085938 C-91.32590817 80.97445938 -91.33017841 83.56806256 -91.33317566 86.16166687 C-91.34345645 92.28854769 -91.36709632 98.41524328 -91.39722413 104.54205436 C-91.43078596 111.51904018 -91.4472586 118.49603379 -91.46231043 125.47308028 C-91.49364653 139.82133503 -91.54700199 154.16944507 -91.61328125 168.51757812 C-86.99328125 168.51757812 -82.37328125 168.51757812 -77.61328125 168.51757812 C-77.6221637 166.76000183 -77.63104614 165.00242554 -77.64019775 163.19158936 C-77.72118085 146.65191971 -77.78143751 130.11229799 -77.82052994 113.57247543 C-77.84116302 105.06858106 -77.86929775 96.5648346 -77.91503906 88.06103516 C-77.95488414 80.64988204 -77.98070864 73.23883603 -77.98963523 65.82757878 C-77.99485398 61.90262549 -78.00713503 57.97797864 -78.03620148 54.05312347 C-78.06333404 50.35950553 -78.07173079 46.66632052 -78.06571198 42.97261238 C-78.06733863 40.969453 -78.08887274 38.96634086 -78.11096191 36.96330261 C-78.10546326 35.77140823 -78.0999646 34.57951385 -78.09429932 33.35150146 C-78.09798649 32.31540615 -78.10167366 31.27931084 -78.10547256 30.2118187 C-77.48456885 26.81301029 -76.28848431 25.63381837 -73.61328125 23.51757812 C-71.4128418 23.00964355 -71.4128418 23.00964355 -69 23 C-68.0922583 22.98739136 -67.1845166 22.97478271 -66.24926758 22.96179199 C-64.78976685 22.97393738 -64.78976685 22.97393738 -63.30078125 22.98632812 C-62.29490967 22.98250122 -61.28903809 22.97867432 -60.25268555 22.97473145 C-58.12775674 22.97201162 -56.00279449 22.97937772 -53.87792969 22.99609375 C-50.62489193 23.01750172 -47.3740628 22.9962938 -44.12109375 22.97070312 C-42.05598471 22.97334639 -39.99087704 22.97847133 -37.92578125 22.98632812 C-36.46628052 22.97418274 -36.46628052 22.97418274 -34.97729492 22.96179199 C-34.06955322 22.97440063 -33.16181152 22.98700928 -32.2265625 23 C-31.03220581 23.00477356 -31.03220581 23.00477356 -29.8137207 23.00964355 C-26.71480404 23.72497653 -25.6032272 25.06462962 -23.61328125 27.51757812 C-23.12108994 30.2118187 -23.12108994 30.2118187 -23.13226318 33.35150146 C-23.12676453 34.54339584 -23.12126587 35.73529022 -23.11560059 36.96330261 C-23.13717224 38.91941216 -23.13717224 38.91941216 -23.15917969 40.91503906 C-23.16030821 42.30477363 -23.15967421 43.69451059 -23.15740967 45.08424377 C-23.15626176 48.85475682 -23.17978295 52.62476112 -23.2077055 56.39515591 C-23.23270662 60.33626668 -23.23506012 64.27738905 -23.23980713 68.21856689 C-23.25224074 75.68069051 -23.28506743 83.14257978 -23.32520509 90.60460019 C-23.36991092 99.10026603 -23.39190683 107.59594304 -23.41198683 116.09169722 C-23.45379983 133.56713024 -23.52496472 151.04232045 -23.61328125 168.51757812 C-18.66328125 168.51757812 -13.71328125 168.51757812 -8.61328125 168.51757812 C-8.6221637 166.47185608 -8.63104614 164.42613403 -8.64019775 162.31842041 C-8.721864 143.07098162 -8.78143063 123.82356564 -8.82052994 104.57599258 C-8.84116667 94.67982398 -8.86930846 84.7837824 -8.91503906 74.88769531 C-8.95487285 66.26357495 -8.98070598 57.63954656 -8.98963523 49.01533675 C-8.99485585 44.44765193 -9.00714916 39.88023028 -9.03620148 35.3126297 C-9.06331603 31.01493679 -9.07173433 26.7176159 -9.06571198 22.41984558 C-9.066814 20.84119903 -9.07479163 19.26254027 -9.09010315 17.68396759 C-9.10997023 15.53040936 -9.10523395 13.37826042 -9.09429932 11.22467041 C-9.09798649 10.01896519 -9.10167366 8.81325996 -9.10547256 7.57101822 C-8.24274778 2.21887492 -5.27402891 0.02107904 0 0 Z M7.38671875 16.51757812 C7.38671875 66.67757812 7.38671875 116.83757812 7.38671875 168.51757812 C14.64671875 168.51757812 21.90671875 168.51757812 29.38671875 168.51757812 C29.38671875 118.35757813 29.38671875 68.19757812 29.38671875 16.51757812 C22.12671875 16.51757812 14.86671875 16.51757812 7.38671875 16.51757812 Z M-61.61328125 39.51757812 C-61.61328125 82.08757812 -61.61328125 124.65757812 -61.61328125 168.51757812 C-54.35328125 168.51757812 -47.09328125 168.51757812 -39.61328125 168.51757812 C-39.61328125 125.94757813 -39.61328125 83.37757812 -39.61328125 39.51757812 C-46.87328125 39.51757812 -54.13328125 39.51757812 -61.61328125 39.51757812 Z M-130.61328125 62.51757812 C-130.61328125 97.49757813 -130.61328125 132.47757813 -130.61328125 168.51757812 C-123.35328125 168.51757812 -116.09328125 168.51757812 -108.61328125 168.51757812 C-108.61328125 133.53757812 -108.61328125 98.55757812 -108.61328125 62.51757812 C-115.87328125 62.51757812 -123.13328125 62.51757812 -130.61328125 62.51757812 Z M-198.61328125 85.51757812 C-198.61328125 112.90757812 -198.61328125 140.29757813 -198.61328125 168.51757812 C-191.35328125 168.51757812 -184.09328125 168.51757812 -176.61328125 168.51757812 C-176.61328125 141.12757813 -176.61328125 113.73757812 -176.61328125 85.51757812 C-183.87328125 85.51757812 -191.13328125 85.51757812 -198.61328125 85.51757812 Z " fill="#000000" transform="translate(295.61328125,41.482421875)"/>
<path d="M0 0 C13.47925214 10.81403638 22.39582596 28.30284012 24.4921875 45.3046875 C26.39598918 65.14417828 21.1357614 83.00791112 9.19140625 99.03515625 C-2.05727933 112.46916929 -17.46245255 119.81512344 -34.34375 123.25390625 C-54.93417301 125.02894272 -74.04802037 120.47159333 -90.06640625 107.125 C-103.88671742 94.94154937 -111.46087378 79.75436833 -113.96875 61.56640625 C-115.19134567 41.25250888 -109.79712285 23.44725351 -96.96875 7.56640625 C-70.83111424 -20.49138566 -30.36925054 -22.11411696 0 0 Z M-63.96875 4.56640625 C-64.29875 5.22640625 -64.62875 5.88640625 -64.96875 6.56640625 C-63.77451538 8.97570819 -63.77451538 8.97570819 -61.99609375 11.66015625 C-61.34318359 12.69140625 -60.69027344 13.72265625 -60.01757812 14.78515625 C-59.32083984 15.86796875 -58.62410156 16.95078125 -57.90625 18.06640625 C-56.56035756 20.18045481 -55.21529651 22.29503292 -53.87109375 24.41015625 C-53.21608887 25.43753906 -52.56108398 26.46492188 -51.88623047 27.5234375 C-49.17388612 31.82782506 -46.5578408 36.18703226 -43.96875 40.56640625 C-39.77249091 38.9286258 -36.98198215 35.83317443 -33.890625 32.68359375 C-33.03346893 31.82219284 -33.03346893 31.82219284 -32.15899658 30.94338989 C-30.34082055 29.11404815 -28.52973508 27.27786432 -26.71875 25.44140625 C-25.48483671 24.19745851 -24.25046678 22.95396355 -23.015625 21.7109375 C-19.99468257 18.66798258 -16.98007908 15.61887371 -13.96875 12.56640625 C-14.67425988 9.33680683 -14.67425988 9.33680683 -17.6640625 8.03125 C-18.79585937 7.52722656 -19.92765625 7.02320313 -21.09375 6.50390625 C-22.21007812 5.99730469 -23.32640625 5.49070312 -24.4765625 4.96875 C-31.24768345 2.24969807 -37.05637795 1.20632677 -44.28125 1.25390625 C-45.53494385 1.25801514 -45.53494385 1.25801514 -46.81396484 1.26220703 C-52.74967418 1.36265572 -58.61308044 1.74627107 -63.96875 4.56640625 Z M-79.96875 14.56640625 C-90.0778987 23.29284464 -93.73847969 32.645325 -96.96875 45.56640625 C-84.75875 45.56640625 -72.54875 45.56640625 -59.96875 45.56640625 C-63.07666817 39.3505699 -66.2697914 33.64867513 -69.96875 27.81640625 C-70.48953125 26.97980469 -71.0103125 26.14320313 -71.546875 25.28125 C-74.05311752 21.31303268 -76.4031233 17.68632961 -79.96875 14.56640625 Z M-4.34817505 24.70532227 C-4.8766806 25.23826904 -5.40518616 25.77121582 -5.94970703 26.3203125 C-6.55017853 26.92093506 -7.15065002 27.52155762 -7.76931763 28.14038086 C-8.41520844 28.79659424 -9.06109924 29.45280762 -9.7265625 30.12890625 C-10.38961395 30.7947876 -11.05266541 31.46066895 -11.73580933 32.14672852 C-13.85984417 34.28199006 -15.97683393 36.42408911 -18.09375 38.56640625 C-19.52949041 40.01217323 -20.96568254 41.45749177 -22.40234375 42.90234375 C-25.92974872 46.45184211 -29.45084897 50.00748933 -32.96875 53.56640625 C-29.20631825 58.0504208 -25.33704927 62.35664358 -21.203125 66.5 C-20.42391693 67.28420067 -20.42391693 67.28420067 -19.62896729 68.08424377 C-18.54463478 69.17358746 -17.45899241 70.26162881 -16.37207031 71.34838867 C-14.70348007 73.01919648 -13.04308852 74.69788797 -11.3828125 76.37695312 C-10.32340512 77.43928942 -9.26352658 78.5011561 -8.203125 79.5625 C-7.45938629 80.31701698 -7.45938629 80.31701698 -6.70062256 81.08677673 C-4.29181561 83.78399226 -4.29181561 83.78399226 -0.96875 84.56640625 C0.16674767 82.40471015 1.28953972 80.23778735 2.40625 78.06640625 C2.72335938 77.46570313 3.04046875 76.865 3.3671875 76.24609375 C9.26517436 64.69586949 10.27066965 50.38880668 6.34375 38.00390625 C4.37207738 32.93691962 1.88144158 28.192127 -0.96875 23.56640625 C-3.00984678 23.3541799 -3.00984678 23.3541799 -4.34817505 24.70532227 Z M-96.96875 62.56640625 C-96.66319891 64.00136617 -96.35397282 65.43554387 -96.04321289 66.86938477 C-95.87141006 67.66812515 -95.69960724 68.46686554 -95.52259827 69.28981018 C-92.43428791 81.98432534 -82.86704503 92.76765609 -71.96875 99.56640625 C-59.35975942 106.80901044 -45.66493319 108.72195515 -31.3828125 105.84375 C-25.17249288 103.87209326 -19.50720178 100.97898765 -13.96875 97.56640625 C-19.76676293 84.21417067 -33.95943336 68.83232364 -46.96875 62.56640625 C-62.76780617 58.10035101 -80.90125003 60.582655 -96.96875 62.56640625 Z " fill="#000000" transform="translate(178.96875,255.43359375)"/>
<path d="M0 0 C1.28003906 0.63035156 1.28003906 0.63035156 2.5859375 1.2734375 C16.82879219 9.04635189 26.90916349 22.59024874 31.52734375 38.03515625 C35.52610597 54.65810993 33.99603688 72.21512992 25.8125 87.25 C16.84927071 101.48905412 4.38093531 111.52520792 -12 116 C-23.68461757 118.6347309 -38.91977832 118.73902936 -50 114 C-51.68802734 113.28650391 -51.68802734 113.28650391 -53.41015625 112.55859375 C-61.43754023 108.95225993 -67.85410146 104.33347533 -74 98 C-74.96873047 97.04480469 -74.96873047 97.04480469 -75.95703125 96.0703125 C-85.02609273 86.54681003 -90.2006836 73.05550127 -91 60 C-91.05285156 59.19175781 -91.10570312 58.38351562 -91.16015625 57.55078125 C-91.71644132 40.98316081 -85.86092571 25.06694962 -74.93359375 12.65234375 C-55.12765195 -7.98028084 -25.51608856 -12.58231364 0 0 Z M-63.41015625 23.9375 C-71.86201313 34.90207108 -76.46117761 47.06877239 -75 61 C-72.55277749 74.50715061 -66.280466 85.4712949 -55.3125 93.75 C-44.29190007 101.04157518 -31.3209486 103.51136907 -18.375 100.9375 C-5.79991099 97.54782498 3.95215127 90.73068685 11.109375 79.76953125 C17.02831127 68.94668291 19.51269278 57.24809777 16.95703125 45.046875 C12.69453134 31.47646714 5.39536279 21.15663496 -7 14 C-26.28716583 5.44228969 -48.57667447 7.68957863 -63.41015625 23.9375 Z " fill="#000000" transform="translate(343,280)"/>
<path d="M0 0 C1.08632469 -0.0131424 1.08632469 -0.0131424 2.19459534 -0.02655029 C4.57891471 -0.04848486 6.96136626 -0.03401489 9.34570312 -0.01708984 C11.00810094 -0.02045974 12.67049635 -0.02531381 14.33288574 -0.03158569 C17.81314605 -0.03894889 21.29276374 -0.02827001 24.77294922 -0.00488281 C29.22881978 0.02360546 33.68318459 0.0071984 38.13899994 -0.02274513 C41.57065122 -0.04083354 45.00194688 -0.03505318 48.43360901 -0.02210617 C50.07621947 -0.01877638 51.71886248 -0.02284425 53.36143494 -0.03450394 C55.65979217 -0.0472392 57.95572887 -0.02780343 60.25390625 0 C61.56008911 0.00397797 62.86627197 0.00795593 64.21203613 0.01205444 C68.48930646 0.80730564 69.9754259 2.26336146 72.62695312 5.64697266 C73.33034426 9.39839207 73.00201166 11.01396106 71.0579834 14.29502869 C68.37771646 16.88810116 66.9605894 17.24173045 63.28718567 17.31350708 C62.58784409 17.30181488 61.8885025 17.29012268 61.16796875 17.27807617 C60.05019295 17.28880913 60.05019295 17.28880913 58.90983582 17.29975891 C56.4503317 17.31664696 53.99265023 17.29724497 51.53320312 17.27587891 C49.82214202 17.27670761 48.11108099 17.27916703 46.40002441 17.28318787 C42.81542983 17.28604592 39.23146005 17.27134457 35.64697266 17.24389648 C31.05325716 17.20981319 26.46065893 17.21583156 21.86688995 17.23455906 C18.33407284 17.24513009 14.8015155 17.2361904 11.26872253 17.22117424 C9.57505566 17.21599269 7.88136165 17.21647392 6.18769836 17.22271919 C3.81985187 17.22817286 1.45360202 17.20779408 -0.9140625 17.18041992 C-1.61340408 17.1869458 -2.31274567 17.19347168 -3.03327942 17.20019531 C-6.35208719 17.13498606 -8.11646752 16.8389031 -10.80407715 14.82847595 C-13.12998141 11.59452712 -12.98632425 9.53106272 -12.37304688 5.64697266 C-8.612469 0.7843682 -6.04842988 0.01842043 0 0 Z " fill="#000000" transform="translate(123.373046875,453.35302734375)"/>
<path d="M0 0 C1.1177758 -0.01051392 1.1177758 -0.01051392 2.25813293 -0.02124023 C4.71739138 -0.03882229 7.17549581 -0.02719761 9.63476562 -0.01367188 C11.34582744 -0.01636675 13.05688776 -0.02024913 14.76794434 -0.02526855 C18.35244337 -0.03116386 21.93654346 -0.02259986 25.52099609 -0.00390625 C30.11468002 0.01888362 34.70742917 0.00576066 39.3010788 -0.01819611 C42.83387286 -0.03265339 46.36644546 -0.02804848 49.89924622 -0.01768494 C51.59292207 -0.01501744 53.28661805 -0.01828823 54.98027039 -0.02760315 C57.34806539 -0.037768 59.71434879 -0.02227067 62.08203125 0 C62.78137283 -0.00809692 63.48071442 -0.01619385 64.20124817 -0.02453613 C67.52101932 0.03328386 69.28605994 0.32798522 71.9798584 2.33117676 C74.24730583 5.50673785 74.01693872 7.71019335 73.54101562 11.51757812 C71.78086432 14.70261382 71.04210646 15.35054785 67.54101562 16.51757812 C65.22197436 16.62269112 62.90000222 16.66628013 60.57861328 16.67871094 C59.52198738 16.68615829 59.52198738 16.68615829 58.4440155 16.6937561 C56.11435976 16.70835753 53.7847721 16.71517615 51.45507812 16.72070312 C49.83466592 16.72645602 48.21425373 16.73221373 46.59384155 16.73797607 C43.19602135 16.74848015 39.79822478 16.75432677 36.40039062 16.7578125 C32.05022015 16.76329757 27.70036262 16.78732819 23.3502903 16.81578445 C20.00280855 16.8344234 16.65540203 16.83961709 13.30787277 16.84114838 C11.70432193 16.84417234 10.10077234 16.85219227 8.49727249 16.86533356 C6.25200948 16.88242163 4.007509 16.88050753 1.76220703 16.87402344 C0.48552155 16.87766907 -0.79116394 16.8813147 -2.10653687 16.8850708 C-5.70961454 16.49010424 -7.59231834 15.69383923 -10.45898438 13.51757812 C-12.00485313 10.42584061 -11.75257959 7.9232826 -11.45898438 4.51757812 C-8.32818477 0.09509303 -5.0739714 -0.05874606 0 0 Z " fill="#000000" transform="translate(122.458984375,423.482421875)"/>
<path d="M0 0 C1.08632469 -0.0131424 1.08632469 -0.0131424 2.19459534 -0.02655029 C4.57891471 -0.04848486 6.96136626 -0.03401489 9.34570312 -0.01708984 C11.00810094 -0.02045974 12.67049635 -0.02531381 14.33288574 -0.03158569 C17.81314605 -0.03894889 21.29276374 -0.02827001 24.77294922 -0.00488281 C29.22881978 0.02360546 33.68318459 0.0071984 38.13899994 -0.02274513 C41.57065122 -0.04083354 45.00194688 -0.03505318 48.43360901 -0.02210617 C50.07621947 -0.01877638 51.71886248 -0.02284425 53.36143494 -0.03450394 C55.65979217 -0.0472392 57.95572887 -0.02780343 60.25390625 0 C61.56008911 0.00397797 62.86627197 0.00795593 64.21203613 0.01205444 C68.48930646 0.80730564 69.9754259 2.26336146 72.62695312 5.64697266 C73.33028466 9.39807416 73.00239329 11.01355429 71.0579834 14.29403687 C67.87824434 17.3716299 65.3724714 17.35479458 61.16796875 17.29394531 C60.05019295 17.30708771 60.05019295 17.30708771 58.90983582 17.32049561 C56.45036323 17.34247509 53.99269347 17.32794385 51.53320312 17.31103516 C49.82214005 17.31440375 48.1110793 17.31925674 46.40002441 17.32553101 C42.81544189 17.3329003 39.23148268 17.32219551 35.64697266 17.29882812 C31.05310708 17.27033967 26.46070194 17.28674343 21.86688995 17.31669044 C18.33405562 17.33476226 14.80156731 17.32900607 11.26872253 17.31605148 C9.57504605 17.31271711 7.88133811 17.31680569 6.18769836 17.32844925 C3.81959902 17.34115694 1.45386099 17.32178648 -0.9140625 17.29394531 C-1.96307487 17.30912704 -1.96307487 17.30912704 -3.03327942 17.32461548 C-6.7050101 17.24467795 -8.12567197 16.88640089 -10.80407715 14.29403687 C-12.74848704 11.01355429 -13.07637841 9.39807416 -12.37304688 5.64697266 C-8.58041462 0.8071985 -6.05980072 0.01845506 0 0 Z " fill="#000000" transform="translate(123.373046875,392.35302734375)"/>
<path d="M0 0 C0.6671553 -0.00554901 1.33431061 -0.01109802 2.02168274 -0.01681519 C4.22157182 -0.02860253 6.41939644 -0.00435033 8.61914062 0.02148438 C10.15083726 0.02319584 11.68253683 0.02312943 13.2142334 0.0213623 C16.42224198 0.023015 19.62955128 0.04170232 22.83740234 0.07324219 C26.94674347 0.11292041 31.05516889 0.11728733 35.16466522 0.10977936 C38.32688772 0.10670788 41.48890483 0.11883637 44.65107727 0.13591003 C46.16610933 0.14293482 47.68116466 0.1460652 49.19621277 0.1452179 C51.31482908 0.14701838 53.43235401 0.16841904 55.55078125 0.1953125 C56.75561157 0.20373169 57.96044189 0.21215088 59.20178223 0.2208252 C62.53925148 0.64909332 63.92673448 1.24487841 66.27539062 3.61523438 C67.44946697 7.21573516 67.60298738 8.8945215 66.02539062 12.36523438 C64.27539062 14.61523438 64.27539062 14.61523438 61.27539062 16.61523438 C58.4046936 16.88938904 58.4046936 16.88938904 54.86376953 16.92163086 C54.21787369 16.92995438 53.57197784 16.93827789 52.9065094 16.94685364 C50.77159595 16.97094583 48.63698809 16.97972466 46.50195312 16.98632812 C45.01606149 16.9952953 43.53017078 17.00441716 42.04428101 17.01368713 C38.92891242 17.03017769 35.8136513 17.0378773 32.69824219 17.04077148 C28.71098049 17.0461546 24.72473228 17.08382958 20.73775673 17.12951565 C17.66818578 17.15929582 14.59885857 17.16649523 11.52915573 17.16749763 C10.05954726 17.17169835 8.58993797 17.18412698 7.12047195 17.20501518 C5.06149602 17.23195251 3.00486445 17.22710085 0.94580078 17.21459961 C-0.80934341 17.22220558 -0.80934341 17.22220558 -2.59994507 17.22996521 C-6.67340613 16.42857284 -8.16631827 14.81577962 -10.72460938 11.61523438 C-11.43271224 7.83868576 -11.10928813 6.24626572 -9.10974121 2.96618652 C-5.97131752 -0.12726257 -4.35685933 -0.0074292 0 0 Z " fill="#000000" transform="translate(75.724609375,41.384765625)"/>
<path d="M0 0 C1.26679092 -0.01925285 1.26679092 -0.01925285 2.55917358 -0.03889465 C3.46857697 -0.04628159 4.37798035 -0.05366852 5.31494141 -0.0612793 C6.25326813 -0.06935104 7.19159485 -0.07742279 8.15835571 -0.08573914 C10.14380043 -0.09956777 12.12926881 -0.11029538 14.11474609 -0.11816406 C17.14808159 -0.13539341 20.18033165 -0.17929222 23.21337891 -0.22338867 C25.1430584 -0.23351452 27.07274715 -0.24203096 29.00244141 -0.2487793 C29.90779633 -0.26628738 30.81315125 -0.28379547 31.74594116 -0.30183411 C35.91928702 -0.28748414 38.20101929 -0.17988903 41.84082031 2.02001953 C44.35425752 4.79927081 44.79150391 6.44301946 44.79150391 10.17700195 C43.65370519 12.50431752 42.62309677 14.34540909 40.79150391 16.17700195 C39.34011729 16.2959644 37.88307699 16.34705529 36.42700195 16.36987305 C35.03501839 16.39396744 35.03501839 16.39396744 33.61491394 16.41854858 C29.36169008 16.46285057 25.10862511 16.50406956 20.85522461 16.52709961 C18.6096765 16.54366233 16.36418117 16.57095629 14.11889648 16.60913086 C10.88839245 16.66380861 7.65912668 16.68576074 4.42822266 16.70043945 C3.42393723 16.72310883 2.41965179 16.7457782 1.38493347 16.76913452 C-5.56526987 16.7480044 -5.56526987 16.7480044 -8.84594727 13.83569336 C-10.49781668 10.61246133 -10.74118352 8.75361756 -10.20849609 5.17700195 C-7.68129738 0.7243185 -4.90489493 0.06506093 0 0 Z " fill="#000000" transform="translate(75.20849609375,71.822998046875)"/>
<path d="M0 0 C1.48983398 -0.01643555 1.48983398 -0.01643555 3.00976562 -0.03320312 C10.19586684 0.03938376 10.19586684 0.03938376 13.5625 2.4140625 C15.37198982 5.24139034 15.86892877 7.20250964 15.9375 10.5625 C13.80706522 15.12771739 13.80706522 15.12771739 10.9375 16.5625 C7.34042849 16.88261789 3.73456201 16.88682332 0.125 16.9375 C-0.87337891 16.97488281 -1.87175781 17.01226562 -2.90039062 17.05078125 C-10.28217533 17.13930365 -10.28217533 17.13930365 -14.22265625 14.2265625 C-16.0625 11.5625 -16.0625 11.5625 -16.6875 8.5625 C-14.80724045 -0.46274582 -7.62305118 -0.18374781 0 0 Z " fill="#000000" transform="translate(81.0625,392.4375)"/>
<path d="M0 0 C1.40572266 -0.01643555 1.40572266 -0.01643555 2.83984375 -0.03320312 C7.20453596 0.01322977 9.80885941 0.14100896 13.59375 2.44921875 C15.86933535 4.97194759 16.5 6.16187209 16.5 9.5625 C14.22289157 15.20105422 14.22289157 15.20105422 11.5 16.5625 C7.71520716 16.88338284 3.92171831 16.88681565 0.125 16.9375 C-0.92945312 16.97488281 -1.98390625 17.01226562 -3.0703125 17.05078125 C-10.83523379 17.1394669 -10.83523379 17.1394669 -14.19140625 14.2265625 C-15.80876408 10.93391163 -16.17877244 9.1826197 -15.5 5.5625 C-11.22598179 -0.47088537 -6.81012523 -0.17329755 0 0 Z " fill="#000000" transform="translate(80.5,453.4375)"/>
<path d="M0 0 C1.04542969 -0.00257813 2.09085938 -0.00515625 3.16796875 -0.0078125 C11.94382324 0.10455439 11.94382324 0.10455439 15.5 3.5 C16.67407634 7.10050078 16.82759676 8.77928713 15.25 12.25 C13.26752378 14.798898 11.68865718 16.34432604 8.40283203 16.7746582 C5.80973393 16.80294174 3.21827496 16.82172217 0.625 16.8125 C-0.27347656 16.82861328 -1.17195313 16.84472656 -2.09765625 16.86132812 C-7.01919884 16.86496294 -10.54851983 16.78756751 -14.5 13.5 C-15.92662219 10.64675563 -15.81033868 8.66545451 -15.5 5.5 C-12.21020373 -1.24754011 -6.60432487 -0.17915555 0 0 Z " fill="#000000" transform="translate(80.5,423.5)"/>
</svg>
