<svg width="512" height="512" viewBox="0 0 512 512" fill="none" xmlns="http://www.w3.org/2000/svg">
<g clip-path="url(#clip0_1019_2)">
<path d="M37.5264 -0.137051C38.4343 -0.142126 39.3422 -0.1472 40.2776 -0.152429C41.7681 -0.153175 41.7681 -0.153175 43.2887 -0.153937C44.8766 -0.16051 44.8766 -0.16051 46.4967 -0.167217C50.0561 -0.180607 53.6156 -0.186784 57.1751 -0.192908C59.7227 -0.200809 62.2704 -0.209078 64.818 -0.217688C72.4739 -0.241651 80.1297 -0.25684 87.7856 -0.269748C89.95 -0.273462 92.1144 -0.277435 94.2788 -0.281501C107.733 -0.306747 121.187 -0.328789 134.642 -0.341229C137.758 -0.344159 140.873 -0.34712 143.989 -0.350135C144.763 -0.350881 145.538 -0.351627 146.336 -0.352395C158.861 -0.365031 171.385 -0.398229 183.91 -0.439936C196.785 -0.482454 209.659 -0.505936 222.534 -0.51115C229.756 -0.514553 236.978 -0.526185 244.2 -0.559252C251.002 -0.590346 257.804 -0.595615 264.606 -0.583869C267.094 -0.583649 269.582 -0.591897 272.071 -0.609523C293.058 -0.750012 309.192 1.73339 325.188 16.5625C341.518 33.7761 342.624 53.9529 342.531 76.4687C342.534 78.8032 342.538 81.1377 342.543 83.4723C342.549 88.3335 342.54 93.1944 342.521 98.0556C342.499 104.274 342.512 110.492 342.536 116.71C342.55 121.518 342.546 126.325 342.535 131.133C342.533 133.426 342.536 135.719 342.545 138.012C342.555 141.214 342.54 144.414 342.518 147.615C342.526 148.552 342.534 149.49 342.542 150.455C342.465 156.442 341.408 161.004 338 166C333.119 170.643 329.033 171.357 322.504 171.281C317.55 170.725 314.861 167.977 311.688 164.375C309.451 161.228 308.875 159.631 308.862 155.834C308.857 154.961 308.851 154.087 308.845 153.188C308.844 152.227 308.843 151.267 308.842 150.277C308.837 149.267 308.832 148.257 308.827 147.217C308.816 145.017 308.808 142.818 308.801 140.618C308.789 137.133 308.77 133.648 308.748 130.163C308.686 120.252 308.632 110.341 308.599 100.43C308.578 94.3715 308.542 88.3133 308.498 82.2551C308.484 79.9487 308.475 77.6424 308.472 75.336C308.467 72.1 308.444 68.8645 308.417 65.6286C308.42 64.6823 308.423 63.736 308.426 62.761C308.313 53.6992 306.317 46.4018 300.027 39.7265C293.531 34.1938 285.629 32.8717 277.305 32.8797C276.195 32.8783 275.084 32.877 273.94 32.8755C272.737 32.8791 271.533 32.8827 270.293 32.8864C269.015 32.8863 267.736 32.8861 266.419 32.886C262.926 32.8857 259.432 32.8916 255.939 32.8986C252.283 32.9048 248.628 32.9054 244.972 32.9066C238.056 32.9097 231.139 32.9179 224.223 32.9279C216.346 32.9391 208.469 32.9446 200.593 32.9496C184.395 32.9601 168.198 32.9777 152 33C153.104 33.3624 154.208 33.7247 155.345 34.0981C159.482 35.4599 163.612 36.8396 167.741 38.2246C169.521 38.8189 171.302 39.4085 173.086 39.9931C188.833 45.1614 201.7 50.6057 209.875 66C214.301 74.913 214.285 84.1141 214.241 93.8381C214.241 95.2318 214.243 96.6255 214.246 98.0192C214.25 101.83 214.242 105.64 214.232 109.451C214.223 113.567 214.226 117.684 214.228 121.8C214.229 128.926 214.223 136.052 214.211 143.177C214.195 153.48 214.19 163.782 214.187 174.085C214.183 190.801 214.17 207.517 214.151 224.234C214.133 240.469 214.118 256.704 214.11 272.94C214.109 273.941 214.109 274.942 214.108 275.974C214.106 280.997 214.103 286.02 214.101 291.043C214.08 332.696 214.045 374.348 214 416C222.841 415.915 231.682 415.82 240.523 415.712C244.629 415.663 248.735 415.616 252.841 415.578C256.809 415.541 260.777 415.495 264.746 415.442C266.254 415.423 267.762 415.408 269.27 415.397C285.72 415.372 285.72 415.372 300 408C307.257 400.34 308.3 392.847 308.255 382.662C308.259 381.646 308.263 380.631 308.266 379.585C308.273 377.389 308.276 375.193 308.274 372.998C308.273 369.521 308.286 366.045 308.303 362.569C308.35 352.689 308.374 342.809 308.381 332.929C308.386 326.878 308.41 320.827 308.446 314.776C308.456 312.473 308.458 310.169 308.453 307.866C308.446 304.647 308.463 301.428 308.486 298.209C308.474 296.785 308.474 296.785 308.461 295.332C308.531 289.715 309.223 286.441 313 282C318.028 277.57 320.882 276.7 327.461 276.785C332.23 277.189 335.014 278.96 338.25 282.375C342.166 288.25 342.297 293.164 342.291 300.044C342.297 301.053 342.304 302.062 342.311 303.101C342.33 306.439 342.334 309.776 342.336 313.113C342.342 315.444 342.349 317.775 342.356 320.106C342.368 325 342.372 329.893 342.371 334.786C342.37 341.019 342.398 347.251 342.432 353.483C342.455 358.304 342.458 363.124 342.457 367.945C342.46 370.24 342.468 372.535 342.484 374.83C342.615 396.131 340.775 414.488 325.41 430.648C314.428 441.364 301.54 448.383 285.862 448.227C285.08 448.227 284.299 448.228 283.494 448.228C280.935 448.227 278.376 448.211 275.816 448.195C274.033 448.192 272.249 448.189 270.466 448.187C265.788 448.179 261.111 448.159 256.434 448.137C251.655 448.117 246.875 448.108 242.096 448.098C232.73 448.076 223.365 448.042 214 448C214.009 448.778 214.017 449.557 214.026 450.358C214.06 453.915 214.081 457.471 214.102 461.027C214.115 462.252 214.129 463.476 214.143 464.738C214.18 473.227 213.768 480.265 210 488C209.346 489.355 209.346 489.355 208.68 490.738C203.045 501.13 194.703 506.444 184 511C169.403 515.185 154.992 510.857 141.254 505.973C139.392 505.335 137.53 504.701 135.667 504.07C131.758 502.742 127.855 501.4 123.954 500.048C118.071 498.015 112.165 496.053 106.25 494.113C105.278 493.794 104.306 493.475 103.305 493.147C101.34 492.502 99.3748 491.858 97.4098 491.214C91.5311 489.282 85.6599 487.328 79.7877 485.376C74.8081 483.721 69.8275 482.07 64.8445 480.426C59.8844 478.789 54.9267 477.144 49.9708 475.495C48.1183 474.879 46.2649 474.267 44.4106 473.657C26.9124 467.896 12.9476 462.825 3.41017 446.027C0.755467 440.328 -0.249998 435.142 -0.25726 428.876C-0.260766 428.19 -0.264272 427.505 -0.267884 426.799C-0.277165 424.51 -0.272282 422.222 -0.267415 419.933C-0.271153 418.272 -0.275757 416.612 -0.281148 414.951C-0.293376 410.393 -0.293116 405.836 -0.290757 401.278C-0.290349 396.36 -0.301389 391.443 -0.310872 386.525C-0.327482 376.892 -0.332981 367.259 -0.334096 357.627C-0.335047 349.796 -0.339158 341.965 -0.345498 334.135C-0.363111 311.931 -0.372339 289.727 -0.370839 267.523C-0.370759 266.326 -0.370677 265.129 -0.370595 263.896C-0.370513 262.698 -0.370431 261.499 -0.370347 260.265C-0.369534 240.844 -0.388672 221.423 -0.416871 202.002C-0.445601 182.058 -0.459412 162.114 -0.457685 142.171C-0.457021 130.975 -0.462511 119.779 -0.48404 108.583C-0.502254 99.0504 -0.506601 89.518 -0.493024 79.9855C-0.486495 75.1233 -0.486372 70.2614 -0.503728 65.3993C-0.519467 60.9443 -0.516589 56.4897 -0.499162 52.0347C-0.496094 50.427 -0.499715 48.8193 -0.510881 47.2117C-0.595245 34.1978 1.23703 23.9724 10 14C10.5015 13.3941 11.0029 12.7882 11.5195 12.164C18.0173 4.92318 27.7203 -0.10787 37.5264 -0.137051ZM34 37C32.2201 41.349 31.7496 45.0243 31.7483 49.7029C31.7454 50.3547 31.7425 51.0065 31.7395 51.678C31.7322 53.8592 31.7392 56.0401 31.746 58.2213C31.7437 59.802 31.7406 61.3827 31.7366 62.9634C31.7282 67.3051 31.7324 71.6467 31.7386 75.9884C31.7431 80.6715 31.7361 85.3545 31.7306 90.0376C31.7217 99.211 31.7236 108.384 31.7294 117.558C31.7339 125.012 31.7346 132.467 31.7324 139.921C31.7321 140.982 31.7318 142.042 31.7314 143.135C31.7308 145.289 31.7302 147.443 31.7295 149.597C31.7238 169.803 31.7304 190.008 31.7411 210.214C31.75 227.557 31.7485 244.899 31.7393 262.242C31.7286 282.374 31.7243 302.507 31.7305 322.64C31.7311 324.786 31.7318 326.932 31.7324 329.079C31.7327 330.135 31.733 331.191 31.7333 332.279C31.735 339.725 31.7321 347.172 31.7274 354.619C31.7218 363.692 31.7233 372.766 31.734 381.839C31.7392 386.47 31.7413 391.1 31.7347 395.731C31.7287 399.968 31.732 404.206 31.7426 408.443C31.7449 409.978 31.7437 411.512 31.7389 413.046C31.7328 415.13 31.739 417.213 31.7483 419.297C31.7487 420.455 31.749 421.613 31.7493 422.806C32.091 427.159 33.0118 430.679 35.64 434.193C38.7606 436.582 42.0664 437.717 45.7598 438.913C46.5397 439.176 47.3197 439.439 48.1233 439.71C50.714 440.581 53.31 441.435 55.9063 442.289C57.7456 442.904 59.5845 443.52 61.423 444.137C65.3028 445.437 69.1846 446.732 73.0679 448.022C78.8461 449.945 84.6138 451.897 90.3789 453.858C98.8893 456.753 107.405 459.63 115.927 462.492C120.755 464.113 125.581 465.74 130.403 467.379C135.199 469.008 139.999 470.625 144.803 472.232C146.6 472.836 148.396 473.444 150.19 474.057C152.67 474.904 155.155 475.734 157.643 476.56C158.718 476.934 158.718 476.934 159.815 477.315C164.791 478.941 169.77 479.828 175 479C178.282 476.47 179.692 474.923 181 471C181.096 468.864 181.131 466.726 181.134 464.588C181.137 463.931 181.139 463.275 181.141 462.598C181.148 460.382 181.148 458.166 181.147 455.95C181.15 454.351 181.154 452.752 181.158 451.153C181.168 446.748 181.172 442.343 181.175 437.937C181.179 433.191 181.188 428.444 181.197 423.697C181.217 412.23 181.227 400.762 181.236 389.294C181.24 383.897 181.245 378.499 181.251 373.102C181.268 355.167 181.282 337.233 181.289 319.298C181.291 314.642 181.293 309.987 181.295 305.332C181.296 304.175 181.296 303.018 181.297 301.825C181.305 283.07 181.33 264.315 181.363 245.56C181.396 226.316 181.414 207.072 181.417 187.827C181.419 177.018 181.428 166.208 181.453 155.399C181.475 146.195 181.483 136.992 181.474 127.789C181.469 123.091 181.471 118.394 181.49 113.696C181.508 109.398 181.507 105.099 181.491 100.8C181.489 99.2438 181.493 97.6872 181.505 96.1307C181.52 94.0164 181.511 91.9036 181.495 89.7894C181.496 88.0273 181.496 88.0273 181.498 86.2296C180.887 82.2674 179.499 80.1023 177 77C173.997 75.2923 173.997 75.2923 170.389 74.1811C169.7 73.9417 169.012 73.7023 168.302 73.4556C166.741 72.9168 165.177 72.3881 163.61 71.8676C160.805 70.9351 158.01 69.9754 155.215 69.012C148.414 66.6769 141.599 64.3868 134.781 62.1015C133.548 61.6878 132.315 61.2741 131.045 60.8478C125.205 58.8884 119.363 56.9319 113.521 54.9788C106.818 52.7379 100.118 50.487 93.4214 48.2279C87.5793 46.258 81.7328 44.3013 75.8848 42.3492C73.4115 41.5216 70.9396 40.6899 68.4691 39.854C65.0228 38.689 61.5718 37.5393 58.1191 36.393C57.1071 36.0471 56.095 35.7012 55.0522 35.3448C43.7563 31.6148 43.7563 31.6148 34 37Z" fill="#EF4444"/>
<path d="M422 128C427.51 131.167 431.717 135.433 436.177 139.918C436.974 140.712 437.772 141.506 438.593 142.324C441.218 144.94 443.836 147.564 446.453 150.188C448.278 152.011 450.103 153.834 451.928 155.657C455.748 159.474 459.564 163.293 463.377 167.116C467.782 171.533 472.195 175.942 476.611 180.347C480.867 184.593 485.117 188.844 489.365 193.097C491.17 194.904 492.977 196.709 494.786 198.513C497.309 201.031 499.826 203.556 502.341 206.082C503.091 206.828 503.841 207.574 504.614 208.343C505.298 209.033 505.982 209.722 506.687 210.433C507.579 211.327 507.579 211.327 508.49 212.238C511.675 215.954 512.313 219.03 512.375 223.875C512.403 224.883 512.432 225.891 512.461 226.93C511.371 234.192 505.061 239.224 500.082 244.177C499.288 244.974 498.494 245.772 497.676 246.593C495.06 249.218 492.436 251.836 489.812 254.453C487.989 256.278 486.166 258.103 484.343 259.928C480.527 263.748 476.707 267.564 472.884 271.377C468.467 275.782 464.058 280.195 459.653 284.611C455.407 288.867 451.156 293.117 446.903 297.365C445.096 299.17 443.291 300.977 441.487 302.786C438.969 305.309 436.444 307.826 433.918 310.341C433.172 311.091 432.426 311.841 431.657 312.614C430.967 313.298 430.278 313.982 429.567 314.687C428.673 315.579 428.673 315.579 427.762 316.49C423.134 320.457 418.821 320.428 412.914 320.313C407.613 319.744 405.16 317.221 401.625 313.5C399.277 308.442 399.029 303.483 400 298C402.598 293.671 405.565 290.19 409.136 286.637C409.634 286.139 410.132 285.641 410.645 285.127C412.274 283.499 413.91 281.879 415.547 280.258C416.685 279.123 417.823 277.989 418.96 276.853C421.941 273.88 424.928 270.912 427.916 267.946C430.97 264.913 434.018 261.874 437.066 258.836C443.039 252.885 449.017 246.941 455 241C454.141 240.999 453.281 240.999 452.396 240.998C431.48 240.983 410.565 240.941 389.649 240.868C379.535 240.833 369.42 240.808 359.305 240.804C350.489 240.801 341.673 240.781 332.856 240.74C328.188 240.718 323.521 240.706 318.853 240.714C314.457 240.721 310.063 240.706 305.667 240.672C304.056 240.664 302.445 240.664 300.834 240.673C287.147 240.746 287.147 240.746 282.608 237.627C278.386 233.374 276.85 230.002 276.562 224.063C276.741 218.909 277.879 216.106 281 212C285.462 208.432 288.42 207.498 294.099 207.481C294.791 207.474 295.482 207.466 296.194 207.458C298.497 207.438 300.8 207.446 303.103 207.454C304.759 207.445 306.415 207.435 308.071 207.423C312.558 207.395 317.045 207.392 321.532 207.393C326.225 207.389 330.917 207.364 335.61 207.341C344.492 207.3 353.374 207.28 362.256 207.267C372.37 207.251 382.484 207.212 392.597 207.172C413.398 207.09 434.199 207.035 455 207C454.34 206.345 453.681 205.69 453.001 205.015C446.787 198.84 440.577 192.661 434.373 186.476C431.183 183.297 427.991 180.119 424.795 176.946C421.711 173.883 418.631 170.816 415.555 167.745C414.381 166.574 413.205 165.405 412.027 164.238C410.377 162.603 408.734 160.962 407.092 159.319C406.604 158.838 406.115 158.357 405.612 157.861C401.182 153.404 399.705 150.397 399.625 144.125C399.726 138.917 400.301 135.894 404 132C409.127 127.13 415.255 126.806 422 128Z" fill="#EF4444"/>
</g>
<defs>
<clipPath id="clip0_1019_2">
<rect width="512" height="512" fill="white"/>
</clipPath>
</defs>
</svg>
