<?xml version="1.0" encoding="UTF-8"?>
<svg version="1.1" xmlns="http://www.w3.org/2000/svg" width="512" height="512">
<path d="M0 0 C1.13977798 -0.00571014 2.27955597 -0.01142029 3.45387268 -0.01730347 C4.70536102 -0.01842133 5.95684937 -0.01953918 7.2462616 -0.02069092 C8.56354752 -0.02565582 9.88083344 -0.03062073 11.23803711 -0.03573608 C14.85384899 -0.04885389 18.4696423 -0.05530388 22.08547425 -0.05974674 C24.3450783 -0.06267859 26.60467729 -0.06678362 28.86427879 -0.07125092 C35.93572873 -0.08492449 43.00716708 -0.09459171 50.07862931 -0.09845281 C58.2384353 -0.10293275 66.3980737 -0.12047817 74.55782872 -0.1494534 C80.86706377 -0.17107883 87.17625169 -0.18115755 93.4855234 -0.18249393 C97.25281288 -0.18354138 101.01994479 -0.18943636 104.78719521 -0.20731354 C108.33226814 -0.22380912 111.87706534 -0.22594268 115.42216301 -0.21717453 C117.33899313 -0.21603874 119.25581417 -0.22974483 121.17259216 -0.243927 C132.11074475 -0.19087505 132.11074475 -0.19087505 136.51652527 3.14044189 C139.19123989 6.84410142 139.89237497 9.40744919 139.8974762 13.94708252 C139.90593567 15.1078833 139.91439514 16.26868408 139.92311096 17.46466064 C139.91400192 19.36151611 139.91400192 19.36151611 139.90470886 21.29669189 C139.90877628 22.64890974 139.91411912 24.00112427 139.92063904 25.35333252 C139.93429838 29.01862765 139.92901982 32.68366903 139.91950178 36.34896851 C139.91189798 40.18766963 139.9189528 44.02634927 139.92366028 47.86505127 C139.92911574 54.31105442 139.92193176 60.75695441 139.90763855 67.20294189 C139.89131238 74.65170307 139.89660104 82.10021788 139.91311777 89.54897308 C139.92673864 95.94827124 139.92864937 102.34749531 139.92080176 108.74680328 C139.91612853 112.56710345 139.9154907 116.38728787 139.92541122 120.20758057 C139.93408743 123.79949455 139.92804736 127.39109141 139.91072845 130.98297119 C139.90487974 132.92738409 139.91377361 134.87182387 139.92311096 136.81622314 C139.91042175 138.55742432 139.91042175 138.55742432 139.8974762 140.33380127 C139.89634512 141.34035767 139.89521404 142.34691406 139.89404869 143.38397217 C139.29208613 147.77917385 137.68924096 150.23915931 134.189147 152.92913246 C131.1502655 154.30644141 129.08202463 154.51762124 125.75457764 154.52139282 C124.02816544 154.53408203 124.02816544 154.53408203 122.26687622 154.54702759 C120.38640343 154.53791855 120.38640343 154.53791855 118.46794128 154.52862549 C117.12719801 154.532693 115.78645808 154.53803589 114.44572449 154.54455566 C110.81135226 154.55821519 107.17723594 154.55293603 103.54285932 154.54341841 C99.73532255 154.53581312 95.92780742 154.54286998 92.12026978 154.5475769 C85.72554092 154.5530326 79.33091606 154.54584847 72.936203 154.53155518 C65.54994507 154.51523594 58.16393568 154.52051253 50.77768379 154.53703439 C44.43017408 154.55066294 38.08273904 154.55256204 31.73521942 154.54471838 C27.94674511 154.54004847 24.15838748 154.53939803 20.36992073 154.54932785 C16.80673001 154.55801498 13.24385856 154.55194409 9.68070221 154.53464508 C7.75437352 154.52880694 5.82801774 154.5376814 3.90170288 154.54702759 C-6.87925288 154.46798073 -6.87925288 154.46798073 -11.48347473 151.14044189 C-13.76987065 147.71084801 -13.73954975 146.45745988 -13.75762939 142.42245483 C-13.76760452 141.23074677 -13.77757965 140.0390387 -13.78785706 138.81121826 C-13.78852173 137.50205444 -13.7891864 136.19289062 -13.78987122 134.84405518 C-13.79749192 133.45272374 -13.80591926 132.06139652 -13.81509399 130.67007446 C-13.83705473 126.88903714 -13.84583997 123.10808069 -13.85092044 119.32698679 C-13.85456214 116.96486735 -13.86080122 114.60276916 -13.86792183 112.24065781 C-13.89242174 104.00037453 -13.9054694 95.76015426 -13.90901184 87.51983643 C-13.91264762 79.83813199 -13.94254433 72.15682698 -13.98441643 64.47524464 C-14.01910339 57.88066681 -14.03456 51.28622145 -14.03525788 44.691553 C-14.03605124 40.75260747 -14.0448166 36.81406873 -14.07325554 32.87521744 C-14.09940943 29.16994843 -14.10165723 25.46542422 -14.0855999 21.76010513 C-14.08291748 19.75359681 -14.1049873 17.74710317 -14.12779236 15.74072266 C-14.04784045 5.93595512 -14.04784045 5.93595512 -11.1335144 2.85574341 C-7.27802005 0.36018254 -4.49501887 0.01347421 0 0 Z M7.51652527 21.14044189 C7.51652527 58.10044189 7.51652527 95.06044189 7.51652527 133.14044189 C44.14652527 133.14044189 80.77652527 133.14044189 118.51652527 133.14044189 C118.51652527 96.18044189 118.51652527 59.22044189 118.51652527 21.14044189 C81.88652527 21.14044189 45.25652527 21.14044189 7.51652527 21.14044189 Z " fill="#161616" transform="translate(290.4834747314453,82.85955810546875)"/>
<path d="M0 0 C1.317724 -0.00525696 2.635448 -0.01051392 3.99310303 -0.01593018 C7.59642618 -0.02957216 11.19949079 -0.02431817 14.8028183 -0.01479292 C18.57965271 -0.00718009 22.35646547 -0.01424643 26.13330078 -0.01895142 C32.47497519 -0.02440425 38.81654466 -0.01722979 45.15820312 -0.00292969 C52.48256654 0.01339598 59.80667941 0.00810713 67.13103676 -0.0084089 C73.42761182 -0.02203727 79.72411159 -0.02393685 86.02069664 -0.0160929 C89.77785726 -0.01142378 93.53490023 -0.01077048 97.29205322 -0.02070236 C101.48131063 -0.03100361 105.67013831 -0.01671264 109.859375 0 C111.10007751 -0.00607269 112.34078003 -0.01214539 113.61907959 -0.0184021 C124.31204556 0.06067535 124.31204556 0.06067535 128.9296875 3.38818359 C131.21608342 6.81777748 131.18576251 8.07116561 131.20384216 12.10617065 C131.21381729 13.29787872 131.22379242 14.48958679 131.23406982 15.71740723 C131.2347345 17.02657104 131.23539917 18.33573486 131.23608398 19.68457031 C131.24370469 21.07590175 131.25213203 22.46722897 131.26130676 23.85855103 C131.28326749 27.63958835 131.29205274 31.4205448 131.29713321 35.2016387 C131.30077491 37.56375814 131.30701399 39.92585633 131.3141346 42.28796768 C131.33863451 50.52825096 131.35168217 58.76847123 131.35522461 67.00878906 C131.35886039 74.6904935 131.3887571 82.37179851 131.43062919 90.05338085 C131.46531616 96.64795868 131.48077277 103.24240404 131.48147064 109.83707249 C131.48226401 113.77601802 131.49102937 117.71455676 131.51946831 121.65340805 C131.5456222 125.35867706 131.54787 129.06320127 131.53181267 132.76852036 C131.52913024 134.77502868 131.55120007 136.78152232 131.57400513 138.78790283 C131.49405322 148.59267037 131.49405322 148.59267037 128.57972717 151.67288208 C124.71355672 154.17535331 121.91626964 154.51608441 117.4082489 154.53535461 C115.68596069 154.54608757 115.68596069 154.54608757 113.92887878 154.55703735 C112.6680397 154.55972626 111.40720062 154.56241516 110.1081543 154.56518555 C108.76770858 154.57145162 107.4272646 154.57809855 106.08682251 154.58509827 C101.68419602 154.60612237 97.28156925 154.61649848 92.87890625 154.62646484 C91.3625213 154.63051289 89.84613654 154.63462983 88.32975197 154.63881493 C81.20597948 154.65786226 74.08221733 154.67209476 66.95842427 154.6804269 C58.73800925 154.69020076 50.5178634 154.71652587 42.29754323 154.75692779 C35.94160061 154.78709359 29.58573514 154.80189616 23.22972232 154.80520791 C19.43443119 154.80755771 15.63942776 154.81650879 11.84421349 154.84166908 C8.2728192 154.86496354 4.70190179 154.86917789 1.1304512 154.8589077 C-0.80071344 154.85817696 -2.73185394 154.87725819 -4.66291809 154.89697266 C-15.46876882 154.83210105 -15.46876882 154.83210105 -20.0703125 150.38818359 C-22.13590896 147.12075086 -22.32320549 144.5314478 -22.33100891 140.70179749 C-22.33809372 139.54237137 -22.34517853 138.38294525 -22.35247803 137.18838501 C-22.35000061 135.92021942 -22.34752319 134.65205383 -22.3449707 133.34545898 C-22.34931898 131.99339008 -22.35450252 130.64132364 -22.36045837 129.28926086 C-22.37384718 125.61982977 -22.37442719 121.95050168 -22.37189507 118.28105092 C-22.37082529 115.21690334 -22.37570891 112.1527766 -22.3805005 109.08863348 C-22.39159525 101.85944748 -22.39203326 94.63031344 -22.38598633 87.40112305 C-22.37994546 79.94500875 -22.39226041 72.48908311 -22.4135564 65.03300101 C-22.43117307 58.62948595 -22.43717366 52.22603094 -22.43391865 45.82249254 C-22.43210577 41.99881291 -22.43474242 38.17526786 -22.44863319 34.35161018 C-22.46120811 30.75562315 -22.45927088 27.15993019 -22.44622231 23.56394768 C-22.44272892 21.61712757 -22.45403697 19.6702985 -22.46578979 17.72351074 C-22.45526833 15.98014183 -22.45526833 15.98014183 -22.4445343 14.20155334 C-22.44470204 13.19369813 -22.44486979 12.18584291 -22.44504261 11.14744663 C-22.00357434 7.89676823 -20.98151582 6.03298564 -19.0703125 3.38818359 C-13.45302014 -0.84915524 -6.71465957 -0.0328653 0 0 Z M-1.0703125 21.38818359 C-1.0703125 58.34818359 -1.0703125 95.30818359 -1.0703125 133.38818359 C35.5596875 133.38818359 72.1896875 133.38818359 109.9296875 133.38818359 C109.9296875 96.42818359 109.9296875 59.46818359 109.9296875 21.38818359 C73.2996875 21.38818359 36.6696875 21.38818359 -1.0703125 21.38818359 Z " fill="#161616" transform="translate(104.0703125,82.61181640625)"/>
<path d="M0 0 C1.29675659 -0.00525696 2.59351318 -0.01051392 3.92956543 -0.01593018 C7.47091667 -0.02955425 11.0120044 -0.02432564 14.55335999 -0.01479292 C18.26832767 -0.00717074 21.98327356 -0.01424901 25.69824219 -0.01895142 C31.93558786 -0.02440154 38.1728268 -0.01723693 44.41015625 -0.00292969 C51.61012197 0.01339546 58.80983278 0.00810642 66.00979233 -0.0084089 C72.2036443 -0.02204501 78.39741975 -0.02393308 84.59128189 -0.0160929 C88.28530299 -0.01142802 91.97920447 -0.01075872 95.67321777 -0.02070236 C99.79271415 -0.03101777 103.91177458 -0.01670006 108.03125 0 C109.24808472 -0.00607269 110.46491943 -0.01214539 111.71862793 -0.0184021 C117.88371116 0.02787404 122.64725021 0.21456989 128.015625 3.38818359 C130.30202092 6.81777748 130.27170001 8.07116561 130.28977966 12.10617065 C130.29975479 13.29787872 130.30972992 14.48958679 130.32000732 15.71740723 C130.320672 17.02657104 130.32133667 18.33573486 130.32202148 19.68457031 C130.32964219 21.07590175 130.33806953 22.46722897 130.34724426 23.85855103 C130.36920499 27.63958835 130.37799024 31.4205448 130.38307071 35.2016387 C130.38671241 37.56375814 130.39295149 39.92585633 130.4000721 42.28796768 C130.42457201 50.52825096 130.43761967 58.76847123 130.44116211 67.00878906 C130.44479789 74.6904935 130.4746946 82.37179851 130.51656669 90.05338085 C130.55125366 96.64795868 130.56671027 103.24240404 130.56740814 109.83707249 C130.56820151 113.77601802 130.57696687 117.71455676 130.60540581 121.65340805 C130.6315597 125.35867706 130.6338075 129.06320127 130.61775017 132.76852036 C130.61506774 134.77502868 130.63713757 136.78152232 130.65994263 138.78790283 C130.57997914 148.59409069 130.57997914 148.59409069 127.72816467 151.67288208 C123.60045258 154.28308199 120.28527443 154.51400871 115.44985962 154.52862549 C113.75075188 154.5371907 113.75075188 154.5371907 112.01731873 154.54592896 C110.15950523 154.54760574 110.15950523 154.54760574 108.26416016 154.54931641 C106.95648178 154.55428131 105.64880341 154.55924622 104.30149841 154.56436157 C100.71673649 154.57746268 97.13199328 154.58392585 93.54721117 154.58837223 C91.30653031 154.59130618 89.06585453 154.59541156 86.82517624 154.5998764 C79.81139482 154.61354426 72.79762505 154.62321484 65.78383124 154.62707829 C57.69308534 154.6315598 49.60250831 154.64911489 41.51181376 154.67807889 C35.25351352 154.69970404 28.99526078 154.70978299 22.73692358 154.71111941 C19.00094758 154.71216669 15.26513048 154.71805816 11.52919388 154.73593903 C7.36131811 154.75550008 3.19379551 154.75112745 -0.97412109 154.74462891 C-2.20861496 154.75384369 -3.44310883 154.76305847 -4.7150116 154.77255249 C-15.56611726 154.71946691 -15.56611726 154.71946691 -19.984375 151.38818359 C-22.65952865 147.6848751 -23.36022485 145.12104467 -23.36532593 140.58154297 C-23.3737854 139.42074219 -23.38224487 138.25994141 -23.39096069 137.06396484 C-23.384888 135.79939453 -23.37881531 134.53482422 -23.37255859 133.23193359 C-23.37662601 131.87971574 -23.38196885 130.52750122 -23.38848877 129.17529297 C-23.40214811 125.50999784 -23.39686956 121.84495646 -23.38735151 118.17965698 C-23.37974771 114.34095585 -23.38680253 110.50227622 -23.39151001 106.66357422 C-23.39696547 100.21757106 -23.38978149 93.77167108 -23.37548828 87.32568359 C-23.35916211 79.87692242 -23.36445077 72.42840761 -23.3809675 64.9796524 C-23.39458837 58.58035424 -23.3964991 52.18113018 -23.38865149 45.7818222 C-23.38397826 41.96152204 -23.38334043 38.14133762 -23.39326096 34.32104492 C-23.40193716 30.72913093 -23.39589709 27.13753408 -23.37857819 23.5456543 C-23.37272947 21.60124139 -23.38162334 19.65680162 -23.39096069 17.71240234 C-23.38250122 16.55160156 -23.37404175 15.39080078 -23.36532593 14.19482422 C-23.36419485 13.18826782 -23.36306377 12.18171143 -23.36189842 11.14465332 C-22.91549837 7.88528407 -21.92641523 6.0255734 -19.984375 3.38818359 C-13.71351276 -0.51094326 -7.20435491 -0.0359538 0 0 Z M-1.984375 21.38818359 C-1.984375 58.34818359 -1.984375 95.30818359 -1.984375 133.38818359 C34.645625 133.38818359 71.275625 133.38818359 109.015625 133.38818359 C109.015625 96.42818359 109.015625 59.46818359 109.015625 21.38818359 C72.385625 21.38818359 35.755625 21.38818359 -1.984375 21.38818359 Z " fill="#151515" transform="translate(104.984375,274.61181640625)"/>
<path d="M0 0 C1.12287918 -0.00571014 2.24575836 -0.01142029 3.40266418 -0.01730347 C4.63028473 -0.01842133 5.85790527 -0.01953918 7.12272644 -0.02069092 C8.41904495 -0.02565582 9.71536346 -0.03062073 11.05096436 -0.03573608 C14.60480267 -0.0488375 18.1586221 -0.0553006 21.71248078 -0.05974674 C23.93440837 -0.06268106 26.15633084 -0.06678654 28.37825584 -0.07125092 C35.33490818 -0.08491977 42.29154876 -0.09458947 49.24821359 -0.09845281 C57.26989954 -0.10293249 65.29141501 -0.12047871 73.31304914 -0.1494534 C79.51956079 -0.17109113 85.72602454 -0.1811582 91.9325735 -0.18249393 C95.63672394 -0.18354044 99.34071398 -0.1894154 103.0448246 -0.20731354 C107.17896955 -0.2269016 111.31275892 -0.22249695 115.44694519 -0.21600342 C117.27926697 -0.22982559 117.27926697 -0.22982559 119.14860535 -0.243927 C125.30209943 -0.21363568 130.18049284 -0.16111458 135.47892761 3.14044189 C138.18635896 6.81788762 138.85478803 9.41698366 138.85987854 13.94708252 C138.86833801 15.1078833 138.87679749 16.26868408 138.88551331 17.46466064 C138.87640427 19.36151611 138.87640427 19.36151611 138.86711121 21.29669189 C138.87117862 22.64890974 138.87652146 24.00112427 138.88304138 25.35333252 C138.89670072 29.01862765 138.89142217 32.68366903 138.88190413 36.34896851 C138.87430032 40.18766963 138.88135514 44.02634927 138.88606262 47.86505127 C138.89151808 54.31105442 138.8843341 60.75695441 138.87004089 67.20294189 C138.85371472 74.65170307 138.85900338 82.10021788 138.87552011 89.54897308 C138.88914099 95.94827124 138.89105171 102.34749531 138.8832041 108.74680328 C138.87853088 112.56710345 138.87789304 116.38728787 138.88781357 120.20758057 C138.89648977 123.79949455 138.8904497 127.39109141 138.8731308 130.98297119 C138.86728208 132.92738409 138.87617595 134.87182387 138.88551331 136.81622314 C138.8728241 138.55742432 138.8728241 138.55742432 138.85987854 140.33380127 C138.85874746 141.34035767 138.85761639 142.34691406 138.85645103 143.38397217 C138.41167859 146.63145747 137.38839922 148.497542 135.47892761 151.14044189 C129.87587589 155.35507495 123.20961716 154.56167738 116.51628113 154.52862549 C114.55673492 154.53651093 114.55673492 154.53651093 112.55760193 154.54455566 C108.98520164 154.55819768 105.41306215 154.55294329 101.84065747 154.54341841 C98.09498743 154.53580399 94.34933917 154.54287251 90.60366821 154.5475769 C84.3132681 154.55302996 78.02297376 154.54585542 71.73258972 154.53155518 C64.47072952 154.51523656 57.20912213 154.52051314 49.94726807 154.53703439 C43.70248145 154.55067062 37.45777072 154.55255829 31.21297401 154.54471838 C27.48763924 154.54005267 23.76242308 154.5393864 20.03709602 154.54932785 C15.88156923 154.55964323 11.72647464 154.54532532 7.57096863 154.52862549 C6.34321213 154.53469818 5.11545563 154.54077087 3.85049438 154.54702759 C-2.33655234 154.50098934 -7.13555657 154.3318218 -12.52107239 151.14044189 C-14.80746831 147.71084801 -14.7771474 146.45745988 -14.79522705 142.42245483 C-14.80520218 141.23074677 -14.81517731 140.0390387 -14.82545471 138.81121826 C-14.82611938 137.50205444 -14.82678406 136.19289063 -14.82746887 134.84405518 C-14.83508957 133.45272374 -14.84351692 132.06139652 -14.85269165 130.67007446 C-14.87465238 126.88903714 -14.88343763 123.10808069 -14.8885181 119.32698679 C-14.8921598 116.96486735 -14.89839887 114.60276916 -14.90551949 112.24065781 C-14.9300194 104.00037453 -14.94306705 95.76015426 -14.9466095 87.51983643 C-14.95024528 79.83813199 -14.98014199 72.15682698 -15.02201408 64.47524464 C-15.05670104 57.88066681 -15.07215766 51.28622145 -15.07285553 44.691553 C-15.0736489 40.75260747 -15.08241426 36.81406873 -15.1108532 32.87521744 C-15.13700709 29.16994843 -15.13925488 25.46542422 -15.12319756 21.76010513 C-15.12051513 19.75359681 -15.14258496 17.74710317 -15.16539001 15.74072266 C-15.08542653 5.9345348 -15.08542653 5.9345348 -12.23361206 2.85574341 C-8.12016182 0.25456213 -4.81826726 0.01469445 0 0 Z M6.47892761 21.14044189 C6.47892761 58.10044189 6.47892761 95.06044189 6.47892761 133.14044189 C43.10892761 133.14044189 79.73892761 133.14044189 117.47892761 133.14044189 C117.47892761 96.18044189 117.47892761 59.22044189 117.47892761 21.14044189 C80.84892761 21.14044189 44.21892761 21.14044189 6.47892761 21.14044189 Z " fill="#151515" transform="translate(291.5210723876953,274.85955810546875)"/>
</svg>
